<svg width="351" height="30" viewBox="0 0 351 30" fill="none" xmlns="http://www.w3.org/2000/svg">
<ellipse cx="337.269" cy="15" rx="11.7311" ry="12" fill="#E8F1FF"/>
<path d="M337.269 28C344.321 28 350 22.1582 350 15C350 7.84178 344.321 2 337.269 2C330.217 2 324.538 7.84178 324.538 15C324.538 22.1582 330.217 28 337.269 28Z" stroke="#B4BDC4" stroke-opacity="0.5" stroke-width="2"/>
<path fill-rule="evenodd" clip-rule="evenodd" d="M334.336 15.4989C334.336 14.6708 333.681 14.0002 332.871 14.0002C332.062 14.0002 331.403 14.6708 331.403 15.4989C331.403 16.3269 332.062 17.0002 332.871 17.0002C333.681 17.0002 334.336 16.3269 334.336 15.4989M340.733 15.4989C340.733 16.3269 341.389 16.9968 342.198 16.9968C343.008 16.9968 343.663 16.3269 343.663 15.4989C343.663 14.6708 343.008 14.0002 342.198 14.0002C341.389 14.0002 340.733 14.6708 340.733 15.4989M339 15.4989C339 14.6708 338.344 14.0002 337.535 14.0002C336.725 14.0002 336.067 14.6708 336.067 15.4989C336.067 16.3269 336.725 17.0002 337.535 17.0002C338.344 17.0002 339 16.3269 339 15.4989" fill="#1D1D1B"/>
</svg>
