<svg width="380" height="600" viewBox="0 0 380 580" fill="none" xmlns="http://www.w3.org/2000/svg">
<g filter="url(#filter0_d_0_3015)">
<rect x="40" y="204" width="360" height="600" rx="16" fill="white"/>
</g>
<path fill-rule="evenodd" clip-rule="evenodd" d="M198 6C198 6 238 22 257 45C276 68 267 88 276 98C285 108 313.5 101 322 116C330.5 131 321 154 322 177C323 200 370 232 370 232V6" fill="#332DA1"/>
<path fill-rule="evenodd" clip-rule="evenodd" d="M10 397C10 397 59 438 59 456C59 474 41 471 41 479C41 487 53.6164 485.347 62 499C70.3836 512.653 55.2439 515.254 72 536C88.7561 556.746 124 566 124 566H26.9056C18.106 566 10.958 558.894 10.9059 550.095L10 397Z" fill="#FF9C07"/>
<path fill-rule="evenodd" clip-rule="evenodd" d="M214.474 86.5504H165.709C164.214 86.5504 163 85.2229 163 83.5872V44.0786C163 42.443 164.214 41.1155 165.709 41.1155H214.474C215.97 41.1155 217.183 42.443 217.183 44.0786V83.5872C217.183 85.2229 215.97 86.5504 214.474 86.5504Z" fill="#0455BF"/>
<path fill-rule="evenodd" clip-rule="evenodd" d="M209.056 82.5995H168.418C167.421 82.5995 166.612 81.7145 166.612 80.624V47.0417C166.612 45.9513 167.421 45.0663 168.418 45.0663H208.153C209.15 45.0663 209.959 45.9513 209.959 47.0417V81.6117C209.959 82.157 209.554 82.5995 209.056 82.5995Z" fill="#FDFEFF"/>
<path fill-rule="evenodd" clip-rule="evenodd" d="M168.418 80.624V47.0417C168.418 45.9513 169.228 45.0663 170.225 45.0663H168.418C167.421 45.0663 166.612 45.9513 166.612 47.0417V80.624C166.612 81.7145 167.421 82.5995 168.418 82.5995H170.225C169.228 82.5995 168.418 81.7145 168.418 80.624Z" fill="#DFEAEF"/>
<path fill-rule="evenodd" clip-rule="evenodd" d="M198.219 63.8329C198.219 68.7412 194.579 72.7224 190.092 72.7224C185.604 72.7224 181.964 68.7412 181.964 63.8329C181.964 58.9246 185.604 54.9435 190.092 54.9435C194.579 54.9435 198.219 58.9246 198.219 63.8329Z" fill="#0455BF"/>
<path fill-rule="evenodd" clip-rule="evenodd" d="M193.704 67.7838C193.704 67.0793 194.052 66.4313 194.607 66.081C193.408 65.304 191.888 66.2562 191.898 67.7838V70.747C192.505 70.747 193.111 70.6693 193.704 70.5205V67.7838Z" fill="#004787"/>
<path fill-rule="evenodd" clip-rule="evenodd" d="M191.898 70.7469C188.84 70.7521 186.042 68.8794 184.654 65.9005C183.267 62.9229 183.526 59.3473 185.322 56.641C183.394 58.1687 182.176 60.5405 181.988 63.1336C181.799 65.7267 182.66 68.2776 184.344 70.1187C186.023 71.9558 188.356 72.8975 190.726 72.692C193.097 72.4853 195.27 71.1538 196.662 69.0441C195.28 70.1503 193.61 70.7469 191.898 70.7469Z" fill="#004787"/>
<path fill-rule="evenodd" clip-rule="evenodd" d="M188.286 67.7838C187.787 67.7838 187.383 67.3413 187.383 66.7961V60.8698C187.383 60.1336 188.088 59.6556 188.69 59.9848L194.109 62.948C194.659 63.2522 194.777 64.0542 194.343 64.527C194.202 64.6824 194.202 64.6824 188.69 67.6758C188.563 67.7483 188.426 67.7838 188.286 67.7838Z" fill="#FEBC00"/>
<path fill-rule="evenodd" clip-rule="evenodd" d="M194.108 62.9481L193.931 62.8506L190.496 64.7181C189.894 65.0473 189.188 64.5693 189.188 63.8331V60.2576L188.69 59.985C188.088 59.6557 187.382 60.1338 187.382 60.8699V66.7962C187.378 67.5324 188.083 68.0105 188.685 67.6865C194.193 64.6917 194.193 64.6917 194.338 64.5377C194.772 64.0596 194.654 63.2563 194.103 62.9586L194.108 62.9481Z" fill="#EDAA03"/>
<path fill-rule="evenodd" clip-rule="evenodd" d="M180.158 74.6978H172.031V76.6732H197.316V74.6978H180.158Z" fill="#0455BF"/>
<path fill-rule="evenodd" clip-rule="evenodd" d="M213.571 61.8575C214.568 61.8575 215.377 62.948 215.377 63.833C215.377 64.9234 214.568 65.8084 213.571 65.8084C212.574 65.8084 211.765 64.718 211.765 63.833C211.765 62.7425 212.574 61.8575 213.571 61.8575Z" fill="#FEBC00"/>
<path fill-rule="evenodd" clip-rule="evenodd" d="M214.474 64.8207C213.162 64.826 212.287 63.3391 212.833 62.038C211.676 62.5977 211.393 64.2597 212.287 65.2368C213.186 66.2193 214.7 65.9111 215.217 64.6455C214.982 64.7588 214.728 64.8207 214.474 64.8207Z" fill="#EDAA03"/>
<path fill-rule="evenodd" clip-rule="evenodd" d="M206.347 80.6241C205.35 80.6241 204.54 81.5091 204.54 82.5995V79.6364C204.54 77.0025 200.928 77.0025 200.928 79.6364V75.6855C200.928 73.0516 197.316 73.0516 197.316 75.6855V67.7838C197.316 65.1499 193.704 65.1499 193.704 67.7838V87.708C193.704 88.8037 192.495 89.3489 191.789 88.5772L188.285 84.7448C187.585 83.952 186.423 83.9428 185.712 84.7237C184.998 85.5008 185.007 86.7716 185.732 87.5381L189.561 91.7313L191.173 93.4907C192.843 95.316 193.783 97.7958 193.783 100.378H205.816V100.008C205.816 98.5886 206.224 97.2045 206.981 96.0469C207.743 94.8946 208.153 93.5105 208.153 92.0908V82.5995C208.153 81.5091 207.344 80.6241 206.347 80.6241Z" fill="#ECC19C"/>
<path fill-rule="evenodd" clip-rule="evenodd" d="M177.449 77.661C175.84 77.661 175.036 75.5315 176.17 74.287C177.308 73.0464 179.255 73.9261 179.255 75.6856C179.255 76.776 178.446 77.661 177.449 77.661Z" fill="#FEBC00"/>
<path fill-rule="evenodd" clip-rule="evenodd" d="M178.352 76.6732C177.04 76.6785 176.165 75.1917 176.711 73.8905C175.554 74.4502 175.271 76.1122 176.165 77.0894C177.064 78.0718 178.578 77.7637 179.095 76.4981C178.86 76.6113 178.606 76.6732 178.352 76.6732Z" fill="#EDAA03"/>
<path fill-rule="evenodd" clip-rule="evenodd" d="M185.732 84.7447C185.845 84.6262 185.971 84.5234 186.104 84.4365C184.753 83.5713 183.107 84.879 183.437 86.5502H185.243C185.115 85.897 185.299 85.2175 185.732 84.7447ZM191.898 86.5502H193.704V82.5994H191.898V86.5502Z" fill="#004787"/>
<mask id="mask0_0_3015" style="mask-type:luminance" maskUnits="userSpaceOnUse" x="163" y="41" width="55" height="60">
<path fill-rule="evenodd" clip-rule="evenodd" d="M163 100.378H217.183V41.1155H163V100.378Z" fill="white"/>
</mask>
<g mask="url(#mask0_0_3015)">
<path fill-rule="evenodd" clip-rule="evenodd" d="M191.898 82.5995H193.704V76.6732H191.898V82.5995ZM193.704 71.786C193.492 71.8993 193.276 72.0073 193.06 72.0994C192.984 72.1311 192.909 72.1613 192.828 72.1929C192.626 72.2746 192.42 72.3418 192.208 72.4037C192.119 72.4287 192.02 72.4603 191.925 72.4853L191.893 72.4958V74.6978H193.699L193.704 71.786Z" fill="#DFEAEF"/>
<path fill-rule="evenodd" clip-rule="evenodd" d="M193.704 70.5205C193.111 70.6693 192.505 70.747 191.898 70.747V72.4907L191.93 72.4854C192.317 72.3827 192.692 72.2536 193.06 72.0995C193.28 72.0021 193.497 71.9046 193.704 71.7808V70.5205ZM191.898 76.6733H193.704V74.6979H191.898V76.6733Z" fill="#004787"/>
</g>
<defs>
<filter id="filter0_d_0_3015" x="0" y="0" width="380" height="600" filterUnits="userSpaceOnUse" color-interpolation-filters="sRGB">
<feFlood flood-opacity="0" result="BackgroundImageFix"/>
<feColorMatrix in="SourceAlpha" type="matrix" values="0 0 0 0 0 0 0 0 0 0 0 0 0 0 0 0 0 0 127 0" result="hardAlpha"/>
<feOffset dy="4"/>
<feGaussianBlur stdDeviation="5"/>
<feColorMatrix type="matrix" values="0 0 0 0 0 0 0 0 0 0 0 0 0 0 0 0 0 0 0.08 0"/>
<feBlend mode="normal" in2="BackgroundImageFix" result="effect1_dropShadow_0_3015"/>
<feBlend mode="normal" in="SourceGraphic" in2="effect1_dropShadow_0_3015" result="shape"/>
</filter>
</defs>
</svg>
