<svg width="65" height="36" viewBox="0 0 65 36" fill="none" xmlns="http://www.w3.org/2000/svg">
<path d="M2.09724 34V27.655H3.33024L5.53524 32.605H5.24724L7.45224 27.655H8.67624V34H7.39824V29.689H7.75824L5.78724 34H4.97724L2.99724 29.689H3.37524V34H2.09724ZM11.9198 34V30.985L12.2078 31.786L9.42681 27.655H11.0468L12.7928 30.373H12.5048L14.2508 27.655H15.8168L13.0448 31.786L13.3238 30.985V34H11.9198ZM22.5643 34.099C21.8863 34.099 21.3043 33.964 20.8183 33.694C20.3323 33.424 19.9573 33.046 19.6933 32.56C19.4353 32.068 19.3063 31.489 19.3063 30.823C19.3063 30.157 19.4353 29.581 19.6933 29.095C19.9573 28.609 20.3323 28.231 20.8183 27.961C21.3043 27.691 21.8863 27.556 22.5643 27.556C23.0023 27.556 23.4013 27.619 23.7613 27.745C24.1213 27.865 24.4273 28.042 24.6793 28.276L24.2383 29.383C23.9623 29.167 23.6983 29.014 23.4463 28.924C23.2003 28.834 22.9213 28.789 22.6093 28.789C22.0153 28.789 21.5593 28.966 21.2413 29.32C20.9293 29.668 20.7733 30.169 20.7733 30.823C20.7733 31.477 20.9293 31.981 21.2413 32.335C21.5593 32.689 22.0153 32.866 22.6093 32.866C22.9213 32.866 23.2003 32.821 23.4463 32.731C23.6983 32.641 23.9623 32.488 24.2383 32.272L24.6793 33.379C24.4273 33.607 24.1213 33.784 23.7613 33.91C23.4013 34.036 23.0023 34.099 22.5643 34.099ZM25.6565 30.823C25.6565 30.163 25.7795 29.59 26.0255 29.104C26.2775 28.612 26.6375 28.231 27.1055 27.961C27.5735 27.691 28.1285 27.556 28.7705 27.556C29.4125 27.556 29.9675 27.691 30.4355 27.961C30.9035 28.231 31.2635 28.612 31.5155 29.104C31.7735 29.59 31.9025 30.16 31.9025 30.814C31.9025 31.48 31.7735 32.059 31.5155 32.551C31.2635 33.037 30.9035 33.418 30.4355 33.694C29.9675 33.964 29.4125 34.099 28.7705 34.099C28.1285 34.099 27.5735 33.964 27.1055 33.694C26.6435 33.418 26.2865 33.034 26.0345 32.542C25.7825 32.05 25.6565 31.477 25.6565 30.823ZM27.1235 30.823C27.1235 31.477 27.2585 31.99 27.5285 32.362C27.8045 32.728 28.2185 32.911 28.7705 32.911C29.3105 32.911 29.7215 32.728 30.0035 32.362C30.2855 31.99 30.4265 31.477 30.4265 30.823C30.4265 30.163 30.2855 29.653 30.0035 29.293C29.7275 28.927 29.3165 28.744 28.7705 28.744C28.2185 28.744 27.8045 28.927 27.5285 29.293C27.2585 29.653 27.1235 30.163 27.1235 30.823ZM36.1268 34.099C35.1968 34.099 34.5038 33.868 34.0478 33.406C33.5918 32.944 33.3638 32.257 33.3638 31.345V27.655H34.7678V31.354C34.7678 31.864 34.8758 32.251 35.0918 32.515C35.3138 32.779 35.6588 32.911 36.1268 32.911C36.5828 32.911 36.9218 32.779 37.1438 32.515C37.3718 32.251 37.4858 31.864 37.4858 31.354V27.655H38.8718V31.345C38.8718 32.257 38.6408 32.944 38.1788 33.406C37.7228 33.868 37.0388 34.099 36.1268 34.099ZM40.5146 34V27.655H43.3946C44.1086 27.655 44.6606 27.826 45.0506 28.168C45.4406 28.504 45.6356 28.975 45.6356 29.581C45.6356 29.977 45.5456 30.319 45.3656 30.607C45.1916 30.889 44.9396 31.108 44.6096 31.264C44.2856 31.414 43.8956 31.489 43.4396 31.489L43.5476 31.291H43.9166C44.1746 31.291 44.4026 31.36 44.6006 31.498C44.8046 31.636 44.9726 31.837 45.1046 32.101L46.0496 34H44.5016L43.5206 31.957C43.4486 31.783 43.3346 31.669 43.1786 31.615C43.0286 31.555 42.8546 31.525 42.6566 31.525H41.9186V34H40.5146ZM41.9186 30.517H43.1516C43.5176 30.517 43.7966 30.442 43.9886 30.292C44.1806 30.142 44.2766 29.92 44.2766 29.626C44.2766 29.332 44.1806 29.113 43.9886 28.969C43.7966 28.819 43.5176 28.744 43.1516 28.744H41.9186V30.517ZM49.5553 34.099C49.0453 34.099 48.5683 34.036 48.1243 33.91C47.6803 33.784 47.3023 33.61 46.9903 33.388L47.4043 32.29C47.6083 32.428 47.8243 32.545 48.0523 32.641C48.2803 32.737 48.5203 32.812 48.7723 32.866C49.0243 32.914 49.2883 32.938 49.5643 32.938C49.9963 32.938 50.3023 32.872 50.4823 32.74C50.6683 32.608 50.7613 32.44 50.7613 32.236C50.7613 32.05 50.6983 31.909 50.5723 31.813C50.4523 31.711 50.2303 31.624 49.9063 31.552L48.8443 31.336C48.2623 31.216 47.8273 31.012 47.5393 30.724C47.2513 30.436 47.1073 30.052 47.1073 29.572C47.1073 29.164 47.2153 28.81 47.4313 28.51C47.6473 28.21 47.9503 27.976 48.3403 27.808C48.7363 27.64 49.1983 27.556 49.7263 27.556C50.1763 27.556 50.5963 27.619 50.9863 27.745C51.3763 27.871 51.6973 28.051 51.9493 28.285L51.5353 29.311C51.2893 29.113 51.0133 28.966 50.7073 28.87C50.4073 28.768 50.0713 28.717 49.6993 28.717C49.3093 28.717 49.0093 28.786 48.7993 28.924C48.5953 29.062 48.4933 29.251 48.4933 29.491C48.4933 29.671 48.5563 29.818 48.6823 29.932C48.8083 30.04 49.0303 30.127 49.3483 30.193L50.3923 30.4C50.9863 30.52 51.4273 30.721 51.7153 31.003C52.0033 31.285 52.1473 31.66 52.1473 32.128C52.1473 32.524 52.0393 32.869 51.8233 33.163C51.6133 33.457 51.3133 33.688 50.9233 33.856C50.5393 34.018 50.0833 34.099 49.5553 34.099ZM53.5841 34V27.655H57.9941V28.744H54.9251V30.229H57.7781V31.327H54.9251V32.911H57.9941V34H53.5841ZM61.5789 34.099C61.0689 34.099 60.5919 34.036 60.1479 33.91C59.7039 33.784 59.3259 33.61 59.0139 33.388L59.4279 32.29C59.6319 32.428 59.8479 32.545 60.0759 32.641C60.3039 32.737 60.5439 32.812 60.7959 32.866C61.0479 32.914 61.3119 32.938 61.5879 32.938C62.0199 32.938 62.3259 32.872 62.5059 32.74C62.6919 32.608 62.7849 32.44 62.7849 32.236C62.7849 32.05 62.7219 31.909 62.5959 31.813C62.4759 31.711 62.2539 31.624 61.9299 31.552L60.8679 31.336C60.2859 31.216 59.8509 31.012 59.5629 30.724C59.2749 30.436 59.1309 30.052 59.1309 29.572C59.1309 29.164 59.2389 28.81 59.4549 28.51C59.6709 28.21 59.9739 27.976 60.3639 27.808C60.7599 27.64 61.2219 27.556 61.7499 27.556C62.1999 27.556 62.6199 27.619 63.0099 27.745C63.3999 27.871 63.7209 28.051 63.9729 28.285L63.5589 29.311C63.3129 29.113 63.0369 28.966 62.7309 28.87C62.4309 28.768 62.0949 28.717 61.7229 28.717C61.3329 28.717 61.0329 28.786 60.8229 28.924C60.6189 29.062 60.5169 29.251 60.5169 29.491C60.5169 29.671 60.5799 29.818 60.7059 29.932C60.8319 30.04 61.0539 30.127 61.3719 30.193L62.4159 30.4C63.0099 30.52 63.4509 30.721 63.7389 31.003C64.0269 31.285 64.1709 31.66 64.1709 32.128C64.1709 32.524 64.0629 32.869 63.8469 33.163C63.6369 33.457 63.3369 33.688 62.9469 33.856C62.5629 34.018 62.1069 34.099 61.5789 34.099Z" fill="white"/>
<path fill-rule="evenodd" clip-rule="evenodd" d="M31.133 5.043C31.5 5.082 31.777 5.398 31.777 5.77C31.777 6.145 31.5 6.457 31.133 6.5H28.391C28.023 6.457 27.746 6.145 27.746 5.77C27.746 5.398 28.023 5.082 28.391 5.043H31.133ZM35.594 9.273C35.867 9.242 36.137 9.371 36.285 9.609C36.43 9.848 36.43 10.152 36.285 10.391C36.137 10.629 35.867 10.758 35.594 10.727H28.383C28.016 10.688 27.738 10.375 27.738 10C27.738 9.625 28.016 9.312 28.383 9.273H35.594ZM35.594 13.512C35.988 13.512 36.305 13.836 36.305 14.234C36.305 14.633 35.988 14.957 35.594 14.957H28.383C27.988 14.957 27.668 14.633 27.668 14.234C27.668 13.836 27.988 13.512 28.383 13.512H35.594ZM35.852 0C39.067 0 40.992 1.953 41 5.211V14.789C41 18.047 39.086 20 35.863 20H33.004C32.641 19.961 32.363 19.645 32.363 19.273C32.363 18.898 32.641 18.586 33.004 18.543H35.852C38.309 18.543 39.547 17.281 39.547 14.789V5.211C39.547 2.719 38.309 1.457 35.852 1.457H28.137C25.684 1.457 24.438 2.719 24.438 5.211V14.789C24.438 17.281 25.684 18.543 28.137 18.543C28.504 18.586 28.781 18.898 28.781 19.273C28.781 19.645 28.504 19.961 28.137 20C24.926 20 23 18.047 23 14.789V5.211C23 1.941 24.926 0 28.137 0H35.852Z" fill="white"/>
</svg>
