<svg width="19" height="20" viewBox="0 0 19 20" fill="none" xmlns="http://www.w3.org/2000/svg">
<path fill-rule="evenodd" clip-rule="evenodd" d="M17.2727 12.7273C16.7718 12.7273 16.3636 13.1355 16.3636 13.6364V18.1818H1.81818V13.6364C1.81818 13.1355 1.41 12.7273 0.909091 12.7273C0.408182 12.7273 0 13.1355 0 13.6364V18.31C0.0181818 18.7746 0.216364 19.2155 0.557273 19.5309C0.898182 19.8473 1.35273 20.0182 1.81818 20H16.3636C16.8291 20.0182 17.2836 19.8473 17.6245 19.5309C17.9655 19.2155 18.1636 18.7746 18.1818 18.31V13.6364C18.1818 13.1355 17.7736 12.7273 17.2727 12.7273Z" fill="#1D1D1B"/>
<path fill-rule="evenodd" clip-rule="evenodd" d="M8.42726 14.2543C8.49817 14.3179 8.57999 14.3752 8.66453 14.4179C8.79272 14.4961 8.94181 14.5379 9.0909 14.5452C9.20817 14.5452 9.32908 14.5207 9.43544 14.4743L9.54544 14.4107C9.60181 14.3788 9.65908 14.3434 9.70908 14.3007L14.2545 9.41066C14.5991 9.04066 14.5809 8.46521 14.2154 8.12157C13.8454 7.78067 13.2709 7.79794 12.9264 8.16339L9.99999 11.3179V0.908847C9.99999 0.407938 9.59181 -0.000244141 9.0909 -0.000244141C8.58999 -0.000244141 8.18181 0.407938 8.18181 0.908847V11.3179L5.20908 8.11794C4.86544 7.75157 4.28999 7.7343 3.92362 8.07976C3.55453 8.42066 3.53726 8.99794 3.88181 9.36521L8.42726 14.2543Z" fill="#1D1D1B"/>
</svg>
