<svg width="16" height="19" viewBox="0 0 16 19" fill="none" xmlns="http://www.w3.org/2000/svg">
<path fill-rule="evenodd" clip-rule="evenodd" d="M7.99225 1.42649C6.98025 1.42277 6.01225 1.79824 5.29725 2.46719C4.58225 3.13708 4.18025 4.04734 4.18025 4.993C4.17625 6.43805 5.10225 7.74428 6.52725 8.30143C7.94925 8.85485 9.59025 8.55298 10.6833 7.52999C11.7733 6.51072 12.1013 4.97157 11.5123 3.63553C10.9223 2.30042 9.53125 1.42649 7.99225 1.42649ZM5.96525 0.378329C7.95325 -0.393109 10.2463 0.0363996 11.7652 1.46654C13.2892 2.89296 13.7422 5.04423 12.9142 6.9076C12.0903 8.77471 10.1442 9.99056 7.99225 9.98684C5.05525 9.97938 2.67625 7.74799 2.67625 4.99298L2.68425 4.7787C2.77025 2.84358 4.04725 1.12461 5.96525 0.378329ZM5.88325 11.894C7.32025 11.7813 8.76625 11.7813 10.2032 11.894C10.9882 11.9453 11.7692 12.0505 12.5352 12.2145C14.1952 12.5276 15.2812 13.1425 15.7343 14.0444C16.0972 14.7906 16.0863 15.6534 15.7072 16.3959C15.2462 17.2987 14.1602 17.9137 12.4722 18.2342C11.7113 18.3935 10.9332 18.496 10.1482 18.5435C9.28525 18.6339 8.55125 18.6339 7.86725 18.6339H7.59825C7.21125 18.5938 6.91825 18.2882 6.91825 17.9248C6.91825 17.5605 7.21125 17.255 7.59825 17.2149H8.19525C8.79325 17.2074 9.39825 17.1823 10.0002 17.1348C10.7113 17.091 11.4183 16.9959 12.1173 16.8543C13.3123 16.6102 14.0663 16.2571 14.3013 15.7885C14.4843 15.4316 14.4843 15.0161 14.3013 14.6602C14.0663 14.1832 13.3123 13.8152 12.1403 13.5934C11.4333 13.4443 10.7153 13.3456 9.99225 13.3055C8.64125 13.1891 7.28125 13.1891 5.93025 13.3055C5.21525 13.3493 4.50425 13.4406 3.80525 13.5822C2.60525 13.8301 1.86325 14.1832 1.62125 14.649C1.53125 14.827 1.48825 15.0198 1.48825 15.2164C1.48825 15.413 1.53125 15.6096 1.62125 15.7885C2.03525 16.3233 2.66825 16.6689 3.36725 16.749L3.46925 16.7742C3.69925 16.8469 3.87925 17.022 3.94925 17.2475C4.03125 17.4981 3.95325 17.7748 3.75025 17.9612C3.54725 18.1466 3.25025 18.2081 2.98425 18.1242C1.85525 17.9537 0.86725 17.3239 0.28125 16.4034C-0.09375 15.6608 -0.09375 14.7944 0.28125 14.0518C0.74625 13.1238 1.82825 12.5276 3.50025 12.2071C4.28525 12.0468 5.08225 11.9453 5.88325 11.894Z" fill="white"/>
</svg>
