<svg width="26" height="26" viewBox="0 0 26 26" fill="none" xmlns="http://www.w3.org/2000/svg">
<path fill-rule="evenodd" clip-rule="evenodd" d="M13 23.4C7.267 23.4 2.6 18.733 2.6 13C2.6 7.267 7.267 2.6 13 2.6C18.733 2.6 23.4 7.267 23.4 13C23.4 18.733 18.733 23.4 13 23.4ZM13 0C5.81685 0 0 5.81685 0 13C0 20.1831 5.81685 26 13 26C20.1831 26 26 20.1831 26 13C26 5.81685 20.1831 0 13 0ZM16.3618 7.8L13 11.1618L9.6382 7.8L7.8 9.6382L11.1618 13L7.8 16.3618L9.6382 18.2L13 14.8382L16.3618 18.2L18.2 16.3618L14.8382 13L18.2 9.6382L16.3618 7.8Z" fill="#A0A4AB"/>
</svg>
