<svg width="13" height="16" viewBox="0 0 13 16" fill="none" xmlns="http://www.w3.org/2000/svg">
<path fill-rule="evenodd" clip-rule="evenodd" d="M9.22184 0H3.70344C1.42824 0 0.000244141 1.5872 0.000244141 4.1376V14.6592C0.000244141 15.4 0.587444 16 1.30984 16C1.52824 16 1.74424 15.944 1.93784 15.8376L6.42824 13.344L11.6562 15.8528C11.797 15.9128 11.9562 15.9128 12.1002 15.8528C12.2402 15.7936 12.353 15.6784 12.4122 15.5344C12.5002 15.2656 12.3938 14.972 12.1594 14.828L6.96584 12.344C6.62424 12.1504 6.21624 12.1504 5.87544 12.344L1.37864 14.828C1.32824 14.856 1.26584 14.856 1.21304 14.828C1.16584 14.7968 1.13784 14.7408 1.13784 14.6784V4.1376C1.14424 2.2528 2.06904 1.1784 3.72424 1.1784H9.24024C11.3658 1.1784 11.6746 2.944 11.6746 4.0032V4.484H5.70344C5.55304 4.4904 5.40984 4.556 5.30344 4.6688C5.20024 4.784 5.14744 4.9344 5.15304 5.0904C5.15864 5.4 5.40344 5.6472 5.70344 5.656H11.6562V11.8344C11.6562 12.156 11.9122 12.4184 12.2282 12.4184C12.5402 12.4184 12.797 12.1624 12.8002 11.8408V4.0032C12.8002 1.5312 11.4346 0 9.22184 0Z" fill="#200E32"/>
</svg>
