<svg width="29" height="36" viewBox="0 0 29 36" fill="none" xmlns="http://www.w3.org/2000/svg">
<g clip-path="url(#clip0_254_736)">
<path d="M0.823879 34V27.655H2.22788V30.202H5.13488V27.655H6.54788V34H5.13488V31.363H2.22788V34H0.823879ZM8.04855 30.823C8.04855 30.163 8.17155 29.59 8.41755 29.104C8.66955 28.612 9.02955 28.231 9.49755 27.961C9.96555 27.691 10.5206 27.556 11.1626 27.556C11.8046 27.556 12.3596 27.691 12.8276 27.961C13.2956 28.231 13.6556 28.612 13.9076 29.104C14.1656 29.59 14.2946 30.16 14.2946 30.814C14.2946 31.48 14.1656 32.059 13.9076 32.551C13.6556 33.037 13.2956 33.418 12.8276 33.694C12.3596 33.964 11.8046 34.099 11.1626 34.099C10.5206 34.099 9.96555 33.964 9.49755 33.694C9.03555 33.418 8.67855 33.034 8.42655 32.542C8.17455 32.05 8.04855 31.477 8.04855 30.823ZM9.51555 30.823C9.51555 31.477 9.65055 31.99 9.92055 32.362C10.1966 32.728 10.6106 32.911 11.1626 32.911C11.7026 32.911 12.1136 32.728 12.3956 32.362C12.6776 31.99 12.8186 31.477 12.8186 30.823C12.8186 30.163 12.6776 29.653 12.3956 29.293C12.1196 28.927 11.7086 28.744 11.1626 28.744C10.6106 28.744 10.1966 28.927 9.92055 29.293C9.65055 29.653 9.51555 30.163 9.51555 30.823ZM15.8008 34V27.655H17.0338L19.2388 32.605H18.9508L21.1558 27.655H22.3798V34H21.1018V29.689H21.4618L19.4908 34H18.6808L16.7008 29.689H17.0788V34H15.8008ZM24.0844 34V27.655H28.4944V28.744H25.4254V30.229H28.2784V31.327H25.4254V32.911H28.4944V34H24.0844Z" fill="#202244"/>
<path fill-rule="evenodd" clip-rule="evenodd" d="M12.9219 18.2581H8.92188C7.62488 18.2541 6.57388 17.2071 6.56588 15.9101V7.95305C6.56588 7.51905 6.76188 7.10905 7.09388 6.83205L7.80088 6.30805C8.05888 6.03505 8.08188 5.61705 7.86288 5.31205C7.64088 5.00805 7.23388 4.90605 6.89488 5.06605L6.17588 5.60505C5.44488 6.16805 5.01588 7.03105 4.99988 7.95305V15.9181C5.00388 18.0821 6.75788 19.8361 8.92188 19.8401H12.9219C13.3549 19.8401 13.7029 19.4881 13.7029 19.0591C13.7029 18.6251 13.3549 18.2741 12.9219 18.2741V18.2581Z" fill="#202244"/>
<path fill-rule="evenodd" clip-rule="evenodd" d="M23.7931 7.93425C23.7811 7.02325 23.3631 6.16025 22.6521 5.58625L16.6451 0.79725C15.3241 -0.26575 13.4411 -0.26575 12.1211 0.79725L10.2191 2.18025C9.85905 2.43725 9.77705 2.93425 10.0351 3.29325C10.2931 3.64825 10.7891 3.73025 11.1481 3.47325L13.0781 2.03125C13.8361 1.40625 14.9301 1.40625 15.6881 2.03125L21.6951 6.82025C22.0431 7.09825 22.2461 7.51225 22.2541 7.95325V15.9183C22.2541 17.2153 21.1991 18.2663 19.9061 18.2663H18.1211C17.9381 18.2663 17.7931 18.1172 17.7931 17.9342V14.3442C17.7931 13.1992 16.8671 12.2692 15.7231 12.2662H13.1131C12.5621 12.2662 12.0351 12.4842 11.6451 12.8752C11.2541 13.2662 11.0351 13.7932 11.0351 14.3442V15.7192C11.0351 16.1482 11.3871 16.5002 11.8161 16.5002C12.2501 16.5002 12.6021 16.1482 12.6021 15.7192V14.3442C12.5981 14.2072 12.6481 14.0783 12.7461 13.9803C12.8401 13.8873 12.9691 13.8322 13.1051 13.8322H15.7151C15.9921 13.8322 16.2191 14.0593 16.2191 14.3363V17.9342C16.2231 18.9842 17.0741 19.8323 18.1211 19.8323H19.8591C22.0271 19.8323 23.7811 18.0742 23.7811 15.9102L23.7931 7.93425Z" fill="#202244"/>
</g>
<defs>
<clipPath id="clip0_254_736">
<rect width="29" height="36" fill="white"/>
</clipPath>
</defs>
</svg>
