<svg width="54" height="55" viewBox="0 0 54 55" fill="none" xmlns="http://www.w3.org/2000/svg">
<path fill-rule="evenodd" clip-rule="evenodd" d="M13.7499 29.2035V41.4502C14.8453 41.837 15.5796 42.871 15.5833 44.0352V45.8685C15.5833 46.3736 15.1717 46.7852 14.6666 46.7852H5.49992C4.99484 46.7852 4.58325 46.3736 4.58325 45.8685V44.0352C4.58692 42.871 5.32117 41.837 6.41659 41.4502V29.2035C5.32117 28.8167 4.58692 27.7827 4.58325 26.6185V24.7852C4.58325 24.2801 4.99484 23.8685 5.49992 23.8685H14.6666C15.1717 23.8685 15.5833 24.2801 15.5833 24.7852V26.6185C15.5796 27.7827 14.8453 28.8167 13.7499 29.2035Z" fill="#96A1C3"/>
<path fill-rule="evenodd" clip-rule="evenodd" d="M13.7501 29.2035V41.4502C14.8455 41.837 15.5797 42.871 15.5834 44.0352V45.8685C15.5834 46.3736 15.1718 46.7852 14.6667 46.7852H8.25006C8.2464 46.7604 8.2464 46.7348 8.25006 46.7137V44.7337C8.25373 43.5301 8.97331 42.4457 10.0834 41.9837V28.7168C8.95865 28.2474 8.23173 27.141 8.25006 25.92V23.94C8.2464 23.9189 8.2464 23.8933 8.25006 23.8685H14.6667C15.1718 23.8685 15.5834 24.2801 15.5834 24.7852V26.6185C15.5797 27.7827 14.8455 28.8167 13.7501 29.2035Z" fill="#CCD3EB"/>
<path fill-rule="evenodd" clip-rule="evenodd" d="M30.2499 29.2035V41.4502C31.3453 41.837 32.0796 42.871 32.0833 44.0352V45.8685C32.0833 46.3736 31.6717 46.7852 31.1666 46.7852H21.9999C21.4948 46.7852 21.0833 46.3736 21.0833 45.8685V44.0352C21.0869 42.871 21.8212 41.837 22.9166 41.4502V29.2035C21.8212 28.8167 21.0869 27.7827 21.0833 26.6185V24.7852C21.0833 24.2801 21.4948 23.8685 21.9999 23.8685H31.1666C31.6717 23.8685 32.0833 24.2801 32.0833 24.7852V26.6185C32.0796 27.7827 31.3453 28.8167 30.2499 29.2035Z" fill="#96A1C3"/>
<path fill-rule="evenodd" clip-rule="evenodd" d="M30.2501 29.2035V41.4502C31.3455 41.837 32.0797 42.871 32.0834 44.0352V45.8685C32.0834 46.3736 31.6718 46.7852 31.1667 46.7852H24.7501C24.7464 46.7604 24.7464 46.7348 24.7501 46.7137V44.7337C24.7537 43.5301 25.4733 42.4457 26.5834 41.9837V28.7168C25.4586 28.2474 24.7317 27.141 24.7501 25.92V23.94C24.7464 23.9189 24.7464 23.8933 24.7501 23.8685H31.1667C31.6718 23.8685 32.0834 24.2801 32.0834 24.7852V26.6185C32.0797 27.7827 31.3455 28.8167 30.2501 29.2035Z" fill="#CCD3EB"/>
<path fill-rule="evenodd" clip-rule="evenodd" d="M46.7499 29.2035V41.4502C47.8453 41.837 48.5796 42.871 48.5833 44.0352V45.8685C48.5833 46.3736 48.1717 46.7852 47.6666 46.7852H38.4999C37.9948 46.7852 37.5833 46.3736 37.5833 45.8685V44.0352C37.5869 42.871 38.3212 41.837 39.4166 41.4502V29.2035C38.3212 28.8167 37.5869 27.7827 37.5833 26.6185V24.7852C37.5833 24.2801 37.9948 23.8685 38.4999 23.8685H47.6666C48.1717 23.8685 48.5833 24.2801 48.5833 24.7852V26.6185C48.5796 27.7827 47.8453 28.8167 46.7499 29.2035Z" fill="#96A1C3"/>
<path fill-rule="evenodd" clip-rule="evenodd" d="M49.5 18.3682C49.5 18.8732 49.0884 19.2848 48.5833 19.2848H4.58331C4.19648 19.2848 3.85273 19.041 3.72073 18.6798C3.59148 18.3141 3.70606 17.9062 4.00673 17.6623L4.25423 17.4515L13.0084 10.2932L22.7516 2.31549C23.1531 1.98641 23.5968 1.71416 24.0735 1.50333C24.3815 1.35299 24.7069 1.23474 25.0433 1.15224C26.0535 0.88366 27.1131 0.88366 28.1233 1.15224C28.3525 1.20541 28.578 1.28058 28.7925 1.37408L29.0931 1.50333C29.4626 1.66741 29.8127 1.87183 30.1391 2.10833L30.415 2.31549L38.665 9.07224L41.4901 11.3822L42.1666 11.9515L44.9991 14.2716L47.7491 16.5165L48.8766 17.4332L49.1241 17.6449C49.357 17.8136 49.4963 18.0822 49.5 18.3682ZM46.75 29.2032V41.4507C47.8454 41.8376 48.5796 42.8707 48.5833 44.0348V45.8682C48.5833 46.3742 48.1717 46.7848 47.6666 46.7848H41.25C41.2463 46.761 41.2463 46.7344 41.25 46.7133V44.7342C41.2536 43.5297 41.9732 42.4462 43.0833 41.9842V28.7164C41.9586 28.2471 41.2316 27.1407 41.25 25.9197V23.9397C41.2463 23.9186 41.2463 23.8929 41.25 23.8682H47.6666C48.1717 23.8682 48.5833 24.2797 48.5833 24.7848V26.6182C48.5796 27.7832 47.8454 28.8163 46.75 29.2032Z" fill="#CCD3EB"/>
<path fill-rule="evenodd" clip-rule="evenodd" d="M47.7849 16.5348H12.8333C12.4465 16.5348 12.1027 16.291 11.9707 15.9298C11.8415 15.5641 11.9561 15.1562 12.2567 14.9123L12.5042 14.7015L21.2584 7.54325L28.7925 1.37408L29.0931 1.50333C29.4626 1.66742 29.8136 1.87183 30.1391 2.10833L30.415 2.3155L38.665 9.07225L41.4901 11.3823L42.1666 11.9515L44.9991 14.2716L47.7849 16.5348Z" fill="#F5F7FF"/>
<path fill-rule="evenodd" clip-rule="evenodd" d="M3.66675 17.452H49.5001C51.0181 17.452 52.2501 18.684 52.2501 20.202V22.952C52.2501 24.47 51.0181 25.702 49.5001 25.702H3.66675C2.14875 25.702 0.916748 24.47 0.916748 22.952V20.202C0.916748 18.684 2.14875 17.452 3.66675 17.452Z" fill="#CCD3EB"/>
<path fill-rule="evenodd" clip-rule="evenodd" d="M26.9306 9.20192H26.0139C25.7628 9.20192 25.5556 8.99751 25.5556 8.74359C25.5556 8.48967 25.7628 8.28526 26.0139 8.28526H28.4165C28.9216 8.28526 29.3332 7.87367 29.3332 7.36859C29.3332 6.86351 28.9216 6.45192 28.4165 6.45192H27.4999V5.53526C27.4999 5.03017 27.0883 4.61859 26.5832 4.61859C26.0781 4.61859 25.6665 5.03017 25.6665 5.53526V6.45192C24.4024 6.54817 23.4537 7.65184 23.5499 8.91867C23.6471 10.1828 24.7499 11.1315 26.0139 11.0353H26.9306C27.1845 11.0353 27.3889 11.2397 27.3889 11.4936C27.3889 11.7475 27.1845 11.9519 26.9306 11.9519H24.7499C24.2448 11.9519 23.8332 12.3635 23.8332 12.8686C23.8332 13.3737 24.2448 13.7853 24.7499 13.7853H25.6665V14.7019C25.6665 15.207 26.0781 15.6186 26.5832 15.6186C27.0883 15.6186 27.4999 15.207 27.4999 14.7019V13.7028C28.6283 13.4305 29.3726 12.3534 29.2296 11.2003C29.0829 10.0471 28.0948 9.18359 26.9306 9.20192Z" fill="#F5F7FF"/>
<path fill-rule="evenodd" clip-rule="evenodd" d="M48.5833 44.9516H4.58333C2.0515 44.9516 0 47.0031 0 49.5349V53.2016C0 53.7076 0.411583 54.1183 0.916667 54.1183H52.25C52.7551 54.1183 53.1667 53.7076 53.1667 53.2016V49.5349C53.1667 47.0031 51.1152 44.9516 48.5833 44.9516Z" fill="#96A1C3"/>
<path fill-rule="evenodd" clip-rule="evenodd" d="M42.3315 13.2554C42.1601 13.4662 41.9016 13.5918 41.6257 13.5918C41.4148 13.5955 41.2067 13.5203 41.05 13.381L40.3332 12.797C40.0004 12.4606 39.9757 11.9308 40.2727 11.5687C40.5697 11.2039 41.0958 11.125 41.49 11.3826L42.1665 11.9519C42.3636 12.1022 42.4928 12.324 42.5249 12.5679C42.5533 12.8117 42.4855 13.062 42.3315 13.2554Z" fill="#033C59"/>
<path fill-rule="evenodd" clip-rule="evenodd" d="M26.0139 8.28483H28.4165C28.9216 8.28483 29.3332 7.87325 29.3332 7.36816C29.3332 6.86308 28.9216 6.4515 28.4165 6.4515H27.4999V5.53483C27.4999 5.02975 27.0883 4.61816 26.5832 4.61816C26.0781 4.61816 25.6665 5.02975 25.6665 5.53483V6.4515C24.4024 6.54775 23.4537 7.65141 23.5499 8.91825C23.6471 10.1823 24.7499 11.1311 26.0139 11.0348H26.9306C27.1845 11.0348 27.3889 11.2392 27.3889 11.4932C27.3889 11.7471 27.1845 11.9515 26.9306 11.9515H24.7499C24.2448 11.9515 23.8332 12.3631 23.8332 12.8682C23.8332 13.3732 24.2448 13.7848 24.7499 13.7848H25.6665V14.7015C25.6665 15.2066 26.0781 15.6182 26.5832 15.6182C27.0883 15.6182 27.4999 15.2066 27.4999 14.7015V13.7032C28.6283 13.4301 29.3726 12.353 29.2296 11.1998C29.0829 10.0467 28.0948 9.18316 26.9306 9.2015H26.0139C25.7628 9.2015 25.5556 8.99708 25.5556 8.74316C25.5556 8.48925 25.7628 8.28483 26.0139 8.28483Z" fill="#0074FF"/>
<mask id="mask0_0_1006" style="mask-type:luminance" maskUnits="userSpaceOnUse" x="0" y="0" width="54" height="55">
<path fill-rule="evenodd" clip-rule="evenodd" d="M0 0.916931H53.1667V54.1182H0V0.916931Z" fill="white"/>
</mask>
<g mask="url(#mask0_0_1006)">
<path fill-rule="evenodd" clip-rule="evenodd" d="M51.3333 52.2849H1.83333V49.5349C1.83333 48.0179 3.06533 46.7849 4.58333 46.7849H48.5833C50.1013 46.7849 51.3333 48.0179 51.3333 49.5349V52.2849ZM6.41667 44.0349C6.41667 43.5299 6.82825 43.1183 7.33333 43.1183H12.8333C13.3384 43.1183 13.75 43.5299 13.75 44.0349V44.9516H6.41667V44.0349ZM3.66667 23.8683C3.16158 23.8683 2.75 23.4567 2.75 22.9516V20.2016C2.75 19.6965 3.16158 19.2849 3.66667 19.2849H49.5C50.0051 19.2849 50.4167 19.6965 50.4167 20.2016V22.9516C50.4167 23.4567 50.0051 23.8683 49.5 23.8683H3.66667ZM41.25 41.2849H44.9167V29.3683H41.25V41.2849ZM39.4167 44.0349C39.4167 43.5299 39.8283 43.1183 40.3333 43.1183H45.8333C46.3384 43.1183 46.75 43.5299 46.75 44.0349V44.9516H39.4167V44.0349ZM29.3333 27.5349H23.8333C23.3282 27.5349 22.9167 27.1243 22.9167 26.6183V25.7016H30.25V26.6183C30.25 27.1243 29.8384 27.5349 29.3333 27.5349ZM24.75 41.2849H28.4167V29.3683H24.75V41.2849ZM22.9167 44.0349C22.9167 43.5299 23.3282 43.1183 23.8333 43.1183H29.3333C29.8384 43.1183 30.25 43.5299 30.25 44.0349V44.9516H22.9167V44.0349ZM8.25 41.2849H11.9167V29.3683H8.25V41.2849ZM7.33333 27.5349C6.82825 27.5349 6.41667 27.1243 6.41667 26.6183V25.7016H13.75V26.6183C13.75 27.1243 13.3384 27.5349 12.8333 27.5349H7.33333ZM13.75 41.4509V29.2033C14.8454 28.8164 15.5797 27.7824 15.5833 26.6183V25.7016H21.0833V26.6183C21.087 27.7824 21.8213 28.8164 22.9167 29.2033V41.4509C21.8213 41.8377 21.087 42.8708 21.0833 44.0349V44.9516H15.5833V44.0349C15.5797 42.8708 14.8454 41.8377 13.75 41.4509ZM30.25 41.4509V29.2033C31.3454 28.8164 32.0797 27.7824 32.0833 26.6183V25.7016H37.5833V26.6183C37.587 27.7824 38.3213 28.8164 39.4167 29.2033V41.4509C38.3213 41.8377 37.587 42.8708 37.5833 44.0349V44.9516H32.0833V44.0349C32.0797 42.8708 31.3454 41.8377 30.25 41.4509ZM46.75 26.6183C46.75 27.1243 46.3384 27.5349 45.8333 27.5349H40.3333C39.8283 27.5349 39.4167 27.1243 39.4167 26.6183V25.7016H46.75V26.6183ZM48.5833 44.9516V44.0349C48.5797 42.8708 47.8454 41.8377 46.75 41.4509V29.2033C47.8454 28.8164 48.5797 27.7824 48.5833 26.6183V25.7016H49.5C51.018 25.7016 52.25 24.4696 52.25 22.9516V20.2016C52.25 18.6836 51.018 17.4516 49.5 17.4516H48.9124L45.0349 14.29C44.7874 14.0425 44.4226 13.9573 44.0935 14.0682C43.7598 14.1828 43.5233 14.4724 43.4775 14.8199C43.4344 15.1673 43.5884 15.5074 43.8817 15.7008L46.0158 17.4516H7.15092L23.9048 3.70161C25.2652 2.64194 27.1242 2.48061 28.6458 3.29002C28.8603 3.40827 29.0684 3.54761 29.2618 3.70161L37.5118 10.4474C37.9023 10.7095 38.4285 10.627 38.7255 10.2659C39.0225 9.9001 38.9977 9.37027 38.665 9.0366L30.415 2.29086C30.3252 2.21569 30.2289 2.14419 30.1318 2.07911C29.81 1.83619 29.4626 1.62811 29.0932 1.46402C26.9949 0.504272 24.5355 0.822355 22.7517 2.29086L13.0084 10.2934L4.25425 17.4516H3.66667C2.14867 17.4516 0.916667 18.6836 0.916667 20.2016V22.9516C0.916667 24.4696 2.14867 25.7016 3.66667 25.7016H4.58333V26.6183C4.587 27.7824 5.32125 28.8164 6.41667 29.2033V41.4509C5.32125 41.8377 4.587 42.8708 4.58333 44.0349V44.9516C2.0515 44.9516 0 47.0031 0 49.5349V53.2016C0 53.7076 0.411583 54.1183 0.916667 54.1183H52.25C52.7551 54.1183 53.1667 53.7076 53.1667 53.2016V49.5349C53.1667 47.0031 51.1152 44.9516 48.5833 44.9516Z" fill="#033C59"/>
</g>
</svg>
