<svg width="20" height="19" viewBox="0 0 20 19" fill="none" xmlns="http://www.w3.org/2000/svg">
<path d="M15.2823 1.5956C14.81 1.30925 14.195 1.45996 13.9087 1.93221C13.6223 2.40446 13.7731 3.01943 14.2453 3.30578L15.2823 1.5956ZM18.4437 11.7653L19.3966 12.0688L19.3966 12.0688L18.4437 11.7653ZM1.36864 11.7653L0.415792 12.0688L0.415795 12.0688L1.36864 11.7653ZM5.56706 3.30578C6.03931 3.01943 6.19001 2.40446 5.90367 1.93221C5.61732 1.45996 5.00235 1.30925 4.5301 1.5956L5.56706 3.30578ZM10.9054 1.86328C10.9054 1.311 10.4577 0.863281 9.90537 0.863281C9.35309 0.863281 8.90537 1.311 8.90537 1.86328H10.9054ZM8.90537 9.02909C8.90537 9.58138 9.35309 10.0291 9.90537 10.0291C10.4577 10.0291 10.9054 9.58138 10.9054 9.02909H8.90537ZM14.2453 3.30578C17.1804 5.08548 18.4633 8.40862 17.4909 11.4618L19.3966 12.0688C20.6672 8.07913 18.9559 3.8231 15.2823 1.5956L14.2453 3.30578ZM17.4909 11.4618C16.5132 14.5317 13.4529 16.702 9.90618 16.702V18.702C14.2444 18.702 18.1313 16.0415 19.3966 12.0688L17.4909 11.4618ZM9.90618 16.702C6.35945 16.702 3.2992 14.5317 2.32148 11.4618L0.415795 12.0688C1.68107 16.0415 5.56801 18.702 9.90618 18.702V16.702ZM2.32148 11.4618C1.34909 8.40862 2.63193 5.08548 5.56706 3.30578L4.5301 1.5956C0.856452 3.8231 -0.85482 8.07913 0.415792 12.0688L2.32148 11.4618ZM8.90537 1.86328V9.02909H10.9054V1.86328H8.90537Z" fill="#202244"/>
</svg>
