<svg width="17" height="19" viewBox="0 0 17 19" fill="none" xmlns="http://www.w3.org/2000/svg">
<path fill-rule="evenodd" clip-rule="evenodd" d="M8.46609 0.349121C11.5361 0.349121 14.9791 2.3653 15.3681 5.60478V7.293C15.5011 7.90046 15.8101 8.46879 16.2551 8.93091C16.2821 8.95979 16.3071 8.98867 16.3251 9.02221C16.7321 9.59334 16.9661 10.252 17.0011 10.9322L16.9741 11.1036C17.0051 12.0353 16.6731 12.9483 16.0321 13.6695C15.2201 14.4884 14.1071 15.0018 12.9111 15.1071C9.96209 15.4052 6.98509 15.4052 4.04009 15.1071C2.86009 14.9943 1.76709 14.481 0.970086 13.6695C0.321086 12.9595 -0.0219141 12.0502 0.00108588 11.1222V11.0058C0.0520859 10.307 0.302086 9.62967 0.731086 9.04737L0.802086 8.96352C1.24709 8.49767 1.55209 7.934 1.68909 7.32561V5.63739L1.73509 5.54235C1.88809 5.30198 2.17709 5.16409 2.48109 5.19297C2.82109 5.22931 3.09909 5.46968 3.15309 5.78273V7.47188V7.56226C2.96609 8.41009 2.54409 9.19644 1.92709 9.84117C1.68909 10.1933 1.55609 10.594 1.53609 11.0058V11.1875C1.51709 11.766 1.72409 12.3334 2.12209 12.7853C2.67309 13.3126 3.41109 13.6369 4.20009 13.7021C7.05209 13.99 9.93209 13.99 12.7861 13.7021C13.5991 13.6331 14.3541 13.2949 14.9071 12.7452C15.2861 12.3046 15.4821 11.7549 15.4661 11.1949V11.0058C15.4461 10.5902 15.3181 10.1905 15.0831 9.83371C14.4431 9.19271 13.9931 8.40637 13.7901 7.5548C13.7861 7.52592 13.7861 7.49331 13.7901 7.46443V5.76782C13.5321 3.29326 10.8611 1.75783 8.53609 1.75783C7.54809 1.75783 6.57509 1.99076 5.71609 2.43797L5.61009 2.48921C5.39209 2.56934 5.14609 2.55443 4.93909 2.44542C4.70009 2.31405 4.55209 2.07461 4.56009 1.81933C4.56709 1.56125 4.72409 1.32833 4.97009 1.21186C6.03609 0.650988 7.23909 0.356575 8.46609 0.349121ZM10.1421 16.7189C10.4191 16.486 10.8451 16.472 11.1421 16.7012C11.4661 16.9481 11.5131 17.3962 11.2431 17.6944C10.5791 18.4984 9.55309 18.9717 8.45809 18.9829L8.23909 18.9754C7.23109 18.9065 6.29809 18.4444 5.68109 17.6944L5.61409 17.6105C5.42309 17.3161 5.48509 16.9267 5.78209 16.7012C6.10609 16.4496 6.59109 16.4934 6.86009 16.7953C6.97809 16.9416 7.11809 17.0683 7.27809 17.1773C7.70009 17.4689 8.23109 17.5928 8.75109 17.5201C9.27509 17.4475 9.74309 17.1885 10.0571 16.7953H10.0641L10.1421 16.7189Z" fill="white"/>
</svg>
