<svg width="20" height="18" viewBox="0 0 20 18" fill="none" xmlns="http://www.w3.org/2000/svg">
<path fill-rule="evenodd" clip-rule="evenodd" d="M15.832 8.21038C16.199 8.21038 16.496 8.49454 16.496 8.84765C16.496 9.19703 16.199 9.48027 15.832 9.48027H15.527C15.16 9.48027 14.859 9.19703 14.859 8.84765C14.859 8.49454 15.16 8.21038 15.527 8.21038H15.832ZM14.215 0.174561C17.406 0.174561 20 2.64913 20 5.68829V12.3629C20 15.4021 17.406 17.8766 14.215 17.8766C13.848 17.8766 13.547 17.5925 13.547 17.2394C13.547 16.89 13.848 16.6068 14.215 16.6068C16.668 16.6068 18.668 14.7033 18.668 12.3629V7.03458H15.383C14.305 7.03831 13.426 7.8759 13.426 8.90169C13.426 9.93214 14.305 10.7688 15.383 10.7688H16.746C17.117 10.7688 17.414 11.0567 17.414 11.4061C17.414 11.7555 17.117 12.0424 16.746 12.0424H15.383C13.57 12.0387 12.094 10.6346 12.09 8.90169C12.094 7.17341 13.57 5.76469 15.383 5.76469H18.668V5.68829C18.668 3.34789 16.668 1.44445 14.215 1.44445H5.785C3.805 1.44445 2.145 2.68919 1.566 4.39232H10.355C10.723 4.39232 11.02 4.67648 11.02 5.02959C11.02 5.37897 10.723 5.66314 10.355 5.66314H1.336L1.332 5.68829V12.3629C1.332 14.7033 3.328 16.6068 5.785 16.6068H10.027C10.395 16.6068 10.691 16.89 10.691 17.2394C10.691 17.5925 10.395 17.8766 10.027 17.8766H5.785C2.594 17.8766 0 15.4021 0 12.3629V5.68829C0 2.64913 2.594 0.174561 5.785 0.174561H14.215Z" fill="white"/>
</svg>
