<svg width="71" height="35" viewBox="0 0 71 35" fill="none" xmlns="http://www.w3.org/2000/svg">
<g clip-path="url(#clip0_254_747)">
<path d="M2.35719 33V27.798H0.341188V26.655H5.77719V27.798H3.76119V33H2.35719ZM6.94155 33V26.655H9.82155C10.5356 26.655 11.0876 26.826 11.4776 27.168C11.8676 27.504 12.0626 27.975 12.0626 28.581C12.0626 28.977 11.9726 29.319 11.7926 29.607C11.6186 29.889 11.3666 30.108 11.0366 30.264C10.7126 30.414 10.3226 30.489 9.86655 30.489L9.97455 30.291H10.3436C10.6016 30.291 10.8296 30.36 11.0276 30.498C11.2316 30.636 11.3996 30.837 11.5316 31.101L12.4766 33H10.9286L9.94755 30.957C9.87555 30.783 9.76156 30.669 9.60556 30.615C9.45556 30.555 9.28155 30.525 9.08355 30.525H8.34555V33H6.94155ZM8.34555 29.517H9.57855C9.94455 29.517 10.2236 29.442 10.4156 29.292C10.6076 29.142 10.7036 28.92 10.7036 28.626C10.7036 28.332 10.6076 28.113 10.4156 27.969C10.2236 27.819 9.94455 27.744 9.57855 27.744H8.34555V29.517ZM12.8436 33L15.7596 26.655H16.9206L19.8726 33H18.4506L17.6856 31.236L18.2346 31.623H14.4636L15.0216 31.236L14.2566 33H12.8436ZM16.3356 28.131L15.1746 30.885L14.9316 30.543H17.7666L17.5596 30.885L16.3716 28.131H16.3356ZM20.8197 33V26.655H21.8637L25.3107 31.038H25.0677V26.655H26.3727V33H25.3287L21.8907 28.617H22.1247V33H20.8197ZM30.3526 33.099C29.8426 33.099 29.3656 33.036 28.9216 32.91C28.4776 32.784 28.0996 32.61 27.7876 32.388L28.2016 31.29C28.4056 31.428 28.6216 31.545 28.8496 31.641C29.0776 31.737 29.3176 31.812 29.5696 31.866C29.8216 31.914 30.0856 31.938 30.3616 31.938C30.7936 31.938 31.0996 31.872 31.2796 31.74C31.4656 31.608 31.5586 31.44 31.5586 31.236C31.5586 31.05 31.4956 30.909 31.3696 30.813C31.2496 30.711 31.0276 30.624 30.7036 30.552L29.6416 30.336C29.0596 30.216 28.6246 30.012 28.3366 29.724C28.0486 29.436 27.9046 29.052 27.9046 28.572C27.9046 28.164 28.0126 27.81 28.2286 27.51C28.4446 27.21 28.7476 26.976 29.1376 26.808C29.5336 26.64 29.9956 26.556 30.5236 26.556C30.9736 26.556 31.3936 26.619 31.7836 26.745C32.1736 26.871 32.4946 27.051 32.7466 27.285L32.3326 28.311C32.0866 28.113 31.8106 27.966 31.5046 27.87C31.2046 27.768 30.8686 27.717 30.4966 27.717C30.1066 27.717 29.8066 27.786 29.5966 27.924C29.3926 28.062 29.2906 28.251 29.2906 28.491C29.2906 28.671 29.3536 28.818 29.4796 28.932C29.6056 29.04 29.8276 29.127 30.1456 29.193L31.1896 29.4C31.7836 29.52 32.2246 29.721 32.5126 30.003C32.8006 30.285 32.9446 30.66 32.9446 31.128C32.9446 31.524 32.8366 31.869 32.6206 32.163C32.4106 32.457 32.1106 32.688 31.7206 32.856C31.3366 33.018 30.8806 33.099 30.3526 33.099ZM33.5729 33L36.4889 26.655H37.6499L40.6019 33H39.1799L38.4149 31.236L38.9639 31.623H35.1929L35.7509 31.236L34.9859 33H33.5729ZM37.0649 28.131L35.9039 30.885L35.6609 30.543H38.4959L38.2889 30.885L37.1009 28.131H37.0649ZM44.4686 33.099C43.7906 33.099 43.2086 32.964 42.7226 32.694C42.2366 32.424 41.8616 32.046 41.5976 31.56C41.3396 31.068 41.2106 30.489 41.2106 29.823C41.2106 29.157 41.3396 28.581 41.5976 28.095C41.8616 27.609 42.2366 27.231 42.7226 26.961C43.2086 26.691 43.7906 26.556 44.4686 26.556C44.9066 26.556 45.3056 26.619 45.6656 26.745C46.0256 26.865 46.3316 27.042 46.5836 27.276L46.1426 28.383C45.8666 28.167 45.6026 28.014 45.3506 27.924C45.1046 27.834 44.8256 27.789 44.5136 27.789C43.9196 27.789 43.4636 27.966 43.1456 28.32C42.8336 28.668 42.6776 29.169 42.6776 29.823C42.6776 30.477 42.8336 30.981 43.1456 31.335C43.4636 31.689 43.9196 31.866 44.5136 31.866C44.8256 31.866 45.1046 31.821 45.3506 31.731C45.6026 31.641 45.8666 31.488 46.1426 31.272L46.5836 32.379C46.3316 32.607 46.0256 32.784 45.6656 32.91C45.3056 33.036 44.9066 33.099 44.4686 33.099ZM49.3398 33V27.798H47.3238V26.655H52.7598V27.798H50.7438V33H49.3398ZM53.9242 33V26.655H55.3282V33H53.9242ZM56.8246 29.823C56.8246 29.163 56.9476 28.59 57.1936 28.104C57.4456 27.612 57.8056 27.231 58.2736 26.961C58.7416 26.691 59.2966 26.556 59.9386 26.556C60.5806 26.556 61.1356 26.691 61.6036 26.961C62.0716 27.231 62.4316 27.612 62.6836 28.104C62.9416 28.59 63.0706 29.16 63.0706 29.814C63.0706 30.48 62.9416 31.059 62.6836 31.551C62.4316 32.037 62.0716 32.418 61.6036 32.694C61.1356 32.964 60.5806 33.099 59.9386 33.099C59.2966 33.099 58.7416 32.964 58.2736 32.694C57.8116 32.418 57.4546 32.034 57.2026 31.542C56.9506 31.05 56.8246 30.477 56.8246 29.823ZM58.2916 29.823C58.2916 30.477 58.4266 30.99 58.6966 31.362C58.9726 31.728 59.3866 31.911 59.9386 31.911C60.4786 31.911 60.8896 31.728 61.1716 31.362C61.4536 30.99 61.5946 30.477 61.5946 29.823C61.5946 29.163 61.4536 28.653 61.1716 28.293C60.8956 27.927 60.4846 27.744 59.9386 27.744C59.3866 27.744 58.9726 27.927 58.6966 28.293C58.4266 28.653 58.2916 29.163 58.2916 29.823ZM64.5679 33V26.655H65.6119L69.0589 31.038H68.8159V26.655H70.1209V33H69.0769L65.6389 28.617H65.8729V33H64.5679Z" fill="white"/>
<path fill-rule="evenodd" clip-rule="evenodd" d="M40.832 8.625C41.199 8.625 41.496 8.93 41.496 9.309C41.496 9.684 41.199 9.988 40.832 9.988H40.527C40.16 9.988 39.859 9.684 39.859 9.309C39.859 8.93 40.16 8.625 40.527 8.625H40.832ZM39.215 0C42.406 0 45 2.656 45 5.918V13.082C45 16.344 42.406 19 39.215 19C38.848 19 38.547 18.695 38.547 18.316C38.547 17.941 38.848 17.637 39.215 17.637C41.668 17.637 43.668 15.594 43.668 13.082V7.363H40.383C39.305 7.367 38.426 8.266 38.426 9.367C38.426 10.473 39.305 11.371 40.383 11.371H41.746C42.117 11.371 42.414 11.68 42.414 12.055C42.414 12.43 42.117 12.738 41.746 12.738H40.383C38.57 12.734 37.094 11.227 37.09 9.367C37.094 7.512 38.57 6 40.383 6H43.668V5.918C43.668 3.406 41.668 1.363 39.215 1.363H30.785C28.805 1.363 27.145 2.699 26.566 4.527H35.355C35.723 4.527 36.02 4.832 36.02 5.211C36.02 5.586 35.723 5.891 35.355 5.891H26.336L26.332 5.918V13.082C26.332 15.594 28.328 17.637 30.785 17.637H35.027C35.395 17.637 35.691 17.941 35.691 18.316C35.691 18.695 35.395 19 35.027 19H30.785C27.594 19 25 16.344 25 13.082V5.918C25 2.656 27.594 0 30.785 0H39.215Z" fill="white"/>
</g>
<defs>
<clipPath id="clip0_254_747">
<rect width="71" height="35" fill="white"/>
</clipPath>
</defs>
</svg>
