<?xml version="1.0" encoding="UTF-8"?>
<svg version="1.1" viewBox="0 0 972 1228" width="32" height="35" xmlns="http://www.w3.org/2000/svg">
<path transform="translate(349,35)" d="m0 0h281l19 4 17 8 11 8 10 9 12 16 10 19 6 19 3 15 1 14v206l-2 7-7 8-7 3h-7l-8-4-5-7-3-8-1-197-2-20-3-12-7-13-7-9-9-8-12-6-9-2-18-1h-238l-1 5-1 74-2 18-5 20-7 17-8 14-10 13-10 10-13 9-15 7-17 4-67 1v265l1 197 3 17 5 13 6 10 9 10 8 6 8 4 8 2 16 1 265 1 8 3 5 5 5 10v13l-5 10-6 5-6 2h-283l-18-4-16-8-12-9-11-11-10-14-8-16-7-19-3-14-1-13-1-283v-213l4-10 13-17 14-17 18-22 13-16 9-11 10-12 11-14 8-10 13-16 8-10 11-14 13-16 6-8 11-12 6-5zm-19 85-7 8-22 28-14 18-14 17-11 13-9 11-4 5-2 3v3h36l13-4 11-7 10-10 7-11 6-16 2-8 1-11v-29l-1-9z" fill="#FFFFFF"/>
<path transform="translate(658,442)" d="m0 0h78l9 2 6 4 4 5 3 6 1 12-4 10-5 6-6 3-5 1-17 1-2 9 1 15 10 3 16 6 16 9 11 7 5 4 5-1 13-18 7-8 7-4h7l8 4 6 7 3 6 1 11-3 9-6 9-9 11-6 7-2 5 13 29 6 20 3 14 3 18 1 14v11l-2 22-5 26-8 24-8 16-6 11-10 14-8 10h-2l-2 4h-2l-1 3-10 8-15 10-12 6-14 5-14 3-12 1h-15l-15-2-15-4-19-9-13-9-13-12-9-9-11-14-8-13-8-17-7-19-6-24-2-13-1-16v-11l1-19 4-23 7-23 7-18 10-17 12-17 14-15 11-9 15-10 17-8 16-5h2l1-17-2-7-20-1-8-4-6-8-2-7v-11l4-10 5-5 4-3zm31 121-17 4-14 7-12 9-9 8-9 11-7 11-9 19-5 14-3 18-1 11v16l3 22 4 15 8 19 6 11 8 10 9 10 12 10 15 8 16 5 7 1h19l16-4 11-5 11-6 13-12 9-9 9-14 8-17 5-17 4-21v-29l-3-17-6-21-9-19-8-12-11-12-12-10-15-8-16-5-5-1z" fill="#FFFFFF"/>
<path transform="translate(107,980)" d="m0 0h19l22 3 15 5 16 9 11 9 8 9 9 15 7 16 4 17 1 7v28l-5 23-4 12-8 15-8 10-11 11-15 10-5 3 4 8 15 14 11 8 8 6-1 5-5 5h-42l-12-12-10-13-8-11-7-2-22-3-15-4-19-10-12-11-9-9-8-13-6-14-4-14-2-14v-23l2-17 4-15 6-15 10-15 12-12 14-9 15-7 16-4zm7 37-15 3-13 7-8 8-8 16-3 13-1 8v26l3 16 5 13 5 8 5 5 8 6 13 5 7 1h13l16-4 11-7 8-9 7-14 4-16 1-9v-18l-3-16-4-12-7-12-8-8-8-5-11-4-8-1z" fill="#FFFFFF"/>
<path transform="translate(275,983)" d="m0 0h25l10 1 1 5v100l1 28 4 13 6 9 7 6 8 4 10 2h14l12-3 10-6 6-7 4-8 2-7 1-9 1-127 3-1h20l21 1 1 1-1 128-3 21-5 14-8 13-13 13-14 8-13 4-17 3-9 1h-11l-22-3-17-5-14-8-10-9-7-9-7-15-3-11-2-13-1-13v-120z" fill="#FFFFFF"/>
<path transform="translate(590,983)" d="m0 0h126l20 1 1 1-1 29-3 7-16 21-13 18-12 16-13 18-13 17-13 18-10 14-3 7h100l1 1v19l-1 15-2 1h-151l-2-5-1-12v-12l5-10 14-18 13-18 14-19 14-18 20-28 9-12 6-7 3-6-17-1h-73l-6-1-1-2-1-19v-12l1-2z" fill="#FFFFFF"/>
<path transform="translate(869,983)" d="m0 0h31l25 1 2 3-1 29-10 14-14 19-24 32-12 17-10 13-14 19-9 13-2 4v3l6 1 8-1h85l1 1v18l-1 14-1 2-3 1-148 1-3-4-1-15v-12l3-6 14-19 16-21 8-11 12-16 14-19 13-18 7-9 8-10 2-6-12-1h-80l-3-1-1-2v-33z" fill="#FFFFFF"/>
<path transform="translate(293,442)" d="m0 0h291l9 3 5 4 5 9 1 4v11l-5 10-7 6-9 2h-291l-7-3-6-5-4-11v-10l3-10 4-5 7-4z" fill="#FFFFFF"/>
<path transform="translate(293,538)" d="m0 0h230l10 2 8 7 4 8 1 4v7l-3 10-5 7-7 3-6 1h-232l-7-2-6-5-4-8-1-3v-11l3-10 7-7z" fill="#FFFFFF"/>
<path transform="translate(291,634)" d="m0 0h198l8 3 7 8 3 7 1 11-4 9-5 7-7 3-9 1h-188l-10-3-5-4-4-8-1-3v-12l3-9 5-5z" fill="#FFFFFF"/>
<path transform="translate(498,983)" d="m0 0h26l15 1 1 6-1 195-1 1h-42l-2-2-1-198 1-2z" fill="#FFFFFF"/>
<path transform="translate(483,251)" d="m0 0h124l8 4 5 6 3 9v11l-4 10-7 6-7 2h-122l-6-3-7-8-2-5v-14l6-12z" fill="#FFFFFF"/>
<path transform="translate(522,155)" d="m0 0h84l8 3 6 7 3 9v10l-4 11-7 6-9 2h-82l-6-3-5-6-4-11 1-10 4-10 5-5z" fill="#FFFFFF"/>
<path transform="translate(697,586)" d="m0 0 8 1 8 5 4 6 2 7v85l-3 8-4 5-10 4-8-1-7-4-5-8-2-5-1-76 1-9 6-11 8-6z" fill="#FFFFFF"/>
</svg>
