<svg width="22" height="20" viewBox="0 0 22 20" fill="none" xmlns="http://www.w3.org/2000/svg">
<path fill-rule="evenodd" clip-rule="evenodd" d="M15.9151 15.0067C15.7833 15.0057 15.6563 14.9566 15.5626 14.8702L14.1308 13.5327C13.9503 13.349 13.9571 13.066 14.1456 12.8894C14.3341 12.7129 14.6388 12.7066 14.8361 12.874L15.9151 13.8821L18.1231 11.8212C18.2471 11.6938 18.4356 11.6412 18.6143 11.6838C18.7931 11.7257 18.9316 11.8559 18.9766 12.0215C19.0216 12.1878 18.9648 12.3644 18.8281 12.479L16.2686 14.8702C16.1748 14.9575 16.0478 15.0067 15.9151 15.0067ZM12.4618 15.0595C12.0293 15.2533 11.5763 15.4033 11.1093 15.507C11.0303 15.5254 10.9483 15.5254 10.8703 15.507C7.95509 14.8457 6.12409 12.7911 5.26584 9.22717C5.20609 8.97701 5.37609 8.72872 5.64434 8.67398C5.91309 8.61855 6.17984 8.77693 6.23809 9.02732C7.33109 13.5646 9.96684 14.3379 10.9881 14.5753C11.3781 14.4889 11.7558 14.3643 12.1173 14.2024C12.1953 14.4998 12.3116 14.7875 12.4618 15.0595ZM19.3331 9.95878C18.6046 9.39674 17.7031 9.06343 16.7588 9.00823C16.9093 8.35185 17.0196 7.68802 17.0878 7.0193C17.1046 6.89166 17.0606 6.76425 16.9678 6.66992C16.8798 6.57139 16.7511 6.51223 16.6133 6.50664C14.4638 6.42302 12.5566 5.58869 11.3788 4.21492C11.2813 4.10847 11.1396 4.04745 10.9893 4.04745C10.8398 4.04745 10.6973 4.10847 10.6006 4.21492C9.42309 5.58869 7.51659 6.42302 5.36534 6.50664C5.08909 6.51666 4.87409 6.73327 4.88584 6.99089C4.89659 7.24826 5.12909 7.44834 5.40534 7.43833C7.62609 7.35471 9.62709 6.54857 10.9893 5.21206C12.3361 6.48312 14.1288 7.26014 16.0391 7.40106C15.9668 7.95705 15.8643 8.50931 15.7306 9.05527C13.5683 9.40093 11.9883 11.1481 11.9873 13.1915C11.9873 13.5318 12.0303 13.8712 12.1173 14.2024C12.1963 14.4998 12.3116 14.7875 12.4618 15.0595C12.8926 15.8682 13.5928 16.5253 14.4581 16.932C13.3888 17.5288 12.2138 17.942 10.9893 18.153C4.82634 17.0256 1.80184 12.0269 2.00684 3.29255C2.00984 3.2441 2.04209 3.20124 2.08909 3.18214C2.13584 3.16211 2.19159 3.16933 2.23159 3.19938C3.05384 3.70925 4.02359 3.97291 5.01084 3.95381C6.87309 3.95381 8.39434 3.14301 8.89359 1.89012C8.99034 1.60293 9.26934 1.40145 9.59284 1.38701H12.3926C12.7138 1.40332 12.9903 1.60386 13.0861 1.89012C13.3566 2.53345 13.8643 3.06475 14.5186 3.39061C15.2686 3.77283 16.1133 3.96639 16.9678 3.95381C17.9561 3.97291 18.9258 3.70925 19.7481 3.19938C19.7716 3.18121 19.8018 3.17119 19.8331 3.17119C19.9073 3.16933 19.9688 3.22314 19.9726 3.29255C20.0616 5.53046 19.8468 7.77048 19.3331 9.95878ZM16.7988 16.4343C16.6923 16.4471 16.5861 16.4534 16.4786 16.4524C16.1211 16.4543 15.7656 16.4023 15.4258 16.2987C14.5011 16.0285 13.7403 15.408 13.3301 14.589C13.1768 14.3025 13.0753 13.9939 13.0303 13.6765C13.0001 13.5164 12.9843 13.3543 12.9853 13.1915C12.9863 11.7677 13.9776 10.5082 15.4346 10.0799H15.4406C15.7753 9.98068 16.1261 9.9306 16.4776 9.9306H16.5236C17.4806 9.94248 18.3896 10.3219 19.0381 10.9787C19.3408 11.279 19.5763 11.6321 19.7316 12.0178C19.8906 12.3917 19.9718 12.7893 19.9718 13.1915C19.9718 14.8739 18.5968 16.2796 16.7988 16.4343ZM20.9708 3.26856C20.9581 2.69347 20.4503 2.23438 19.8321 2.23951C19.5948 2.24044 19.3623 2.31055 19.1691 2.43982C18.5146 2.83579 17.7481 3.03843 16.9688 3.02213C15.8761 3.01747 14.4483 2.6399 14.0246 1.56892C13.7871 0.914179 13.1348 0.468366 12.3926 0.455322H9.59284C8.84984 0.468366 8.19534 0.913014 7.95609 1.56892C7.53134 2.6399 6.10459 3.02213 5.01184 3.02213C4.23259 3.0375 3.46584 2.83462 2.81159 2.43982C2.61834 2.31055 2.38584 2.24044 2.14859 2.23951C1.53034 2.23438 1.02259 2.69347 1.00984 3.26856C0.790092 12.5719 4.11934 17.8919 10.9016 19.0847C10.9308 19.0882 10.9611 19.09 10.9913 19.0891C11.0226 19.09 11.0548 19.0882 11.0861 19.0847C12.7363 18.818 14.3028 18.2131 15.6718 17.314C15.9386 17.3613 16.2091 17.3841 16.4806 17.3841C18.9621 17.3787 20.9708 15.5035 20.9718 13.1915C20.9736 12.3271 20.6856 11.4837 20.1486 10.7787C20.7666 8.66303 21.0401 6.16029 20.9708 3.26856Z" fill="white"/>
<path d="M15.5626 14.8702L15.4261 15.0163L15.427 15.0172L15.5626 14.8702ZM14.1308 13.5327L13.988 13.673L13.9943 13.6789L14.1308 13.5327ZM14.8361 12.874L14.9728 12.7277L14.9655 12.7216L14.8361 12.874ZM15.9151 13.8821L15.7786 14.0283L15.915 14.1558L16.0516 14.0283L15.9151 13.8821ZM18.1231 11.8212L18.2597 11.9676L18.2664 11.9607L18.1231 11.8212ZM18.6143 11.6838L18.5679 11.8783L18.5687 11.8785L18.6143 11.6838ZM18.9766 12.0215L19.1696 11.9693L19.1696 11.9691L18.9766 12.0215ZM18.8281 12.479L18.6994 12.3255L18.6916 12.3329L18.8281 12.479ZM16.2686 14.8702L16.4049 15.0165L16.4051 15.0163L16.2686 14.8702ZM11.1093 15.507L11.066 15.3117L11.064 15.3122L11.1093 15.507ZM10.8703 15.507L10.9163 15.3123L10.9146 15.3119L10.8703 15.507ZM5.26584 9.22717L5.07131 9.27363L5.0714 9.274L5.26584 9.22717ZM5.64434 8.67398L5.68433 8.86994L5.68475 8.86986L5.64434 8.67398ZM6.23809 9.02732L6.04329 9.07264L6.04365 9.07416L6.23809 9.02732ZM10.9881 14.5753L10.9428 14.7701L10.987 14.7804L11.0314 14.7706L10.9881 14.5753ZM12.1173 14.2024L12.3108 14.1517L12.2509 13.9234L12.0356 14.0199L12.1173 14.2024ZM16.7588 9.00823L16.5639 8.96353L16.511 9.19408L16.7472 9.20788L16.7588 9.00823ZM17.0878 7.0193L16.8895 6.99327L16.8889 6.999L17.0878 7.0193ZM16.9678 6.66992L16.8185 6.8033L16.8252 6.81014L16.9678 6.66992ZM16.6133 6.50664L16.6215 6.3068L16.6211 6.30679L16.6133 6.50664ZM11.3788 4.21492L11.5308 4.08468L11.5263 4.07983L11.3788 4.21492ZM10.6006 4.21492L10.4525 4.08034L10.4487 4.08476L10.6006 4.21492ZM5.36534 6.50664L5.37259 6.70651L5.37311 6.70649L5.36534 6.50664ZM4.88584 6.99089L5.08567 6.98254L5.08563 6.98177L4.88584 6.99089ZM5.40534 7.43833L5.41259 7.6382L5.41287 7.63819L5.40534 7.43833ZM10.9893 5.21206L11.1266 5.06661L10.9867 4.93451L10.8493 5.0693L10.9893 5.21206ZM16.0391 7.40106L16.2374 7.42684L16.2647 7.21716L16.0538 7.2016L16.0391 7.40106ZM15.7306 9.05527L15.7622 9.25277L15.8933 9.23181L15.9248 9.10286L15.7306 9.05527ZM11.9873 13.1915L11.7873 13.1914V13.1915H11.9873ZM12.1173 14.2024L11.9239 14.2532L11.924 14.2537L12.1173 14.2024ZM12.4618 15.0595L12.6384 14.9655L12.6369 14.9629L12.4618 15.0595ZM14.4581 16.932L14.5556 17.1066L14.8958 16.9168L14.5432 16.751L14.4581 16.932ZM10.9893 18.153L10.9534 18.3497L10.9883 18.3561L11.0233 18.3501L10.9893 18.153ZM2.00684 3.29255L1.80708 3.28018L1.8069 3.28785L2.00684 3.29255ZM2.08909 3.18214L2.1644 3.36746L2.16786 3.36598L2.08909 3.18214ZM2.23159 3.19938L2.11147 3.35929L2.11861 3.36465L2.12619 3.36935L2.23159 3.19938ZM5.01084 3.95381V3.75378L5.00697 3.75385L5.01084 3.95381ZM8.89359 1.89012L9.07966 1.96427L9.08313 1.95397L8.89359 1.89012ZM9.59284 1.38701V1.18681L9.58392 1.18721L9.59284 1.38701ZM12.3926 1.38701L12.4027 1.18701H12.3926V1.38701ZM13.0861 1.89012L12.8964 1.95357L12.8988 1.9607L12.9017 1.96764L13.0861 1.89012ZM14.5186 3.39061L14.6094 3.21241L14.6078 3.21158L14.5186 3.39061ZM16.9678 3.95381L16.9717 3.75374L16.9649 3.75384L16.9678 3.95381ZM19.7481 3.19938L19.8535 3.36935L19.8623 3.36392L19.8704 3.35761L19.7481 3.19938ZM19.8331 3.17119V3.37126L19.8381 3.37113L19.8331 3.17119ZM19.9726 3.29255L20.1725 3.2846L20.1723 3.28176L19.9726 3.29255ZM16.4786 16.4524L16.4803 16.2524L16.4775 16.2524L16.4786 16.4524ZM15.4258 16.2987L15.4842 16.1074L15.4819 16.1067L15.4258 16.2987ZM13.3301 14.589L13.509 14.4994L13.5064 14.4947L13.3301 14.589ZM13.0303 13.6765L13.2286 13.6484L13.2269 13.6393L13.0303 13.6765ZM12.9853 13.1915L13.1853 13.1927L13.1853 13.1916L12.9853 13.1915ZM15.4346 10.0799V9.8799H15.4058L15.3782 9.88802L15.4346 10.0799ZM15.4406 10.0799V10.2799H15.4696L15.4974 10.2717L15.4406 10.0799ZM16.5236 9.9306L16.5261 9.7306H16.5236V9.9306ZM19.0381 10.9787L18.8958 11.1193L18.8973 11.1208L19.0381 10.9787ZM19.7316 12.0178L19.546 12.0925L19.5475 12.0961L19.7316 12.0178ZM19.8321 2.23951L19.8329 2.43951L19.8337 2.4395L19.8321 2.23951ZM19.1691 2.43982L19.2727 2.61112L19.2803 2.60606L19.1691 2.43982ZM16.9688 3.02213L16.973 2.82214L16.9697 2.82213L16.9688 3.02213ZM14.0246 1.56892L13.8365 1.63715L13.8386 1.64251L14.0246 1.56892ZM12.3926 0.455322L12.3961 0.255322H12.3926V0.455322ZM9.59284 0.455322V0.255291L9.58933 0.255353L9.59284 0.455322ZM7.95609 1.56892L8.14208 1.64268L8.14398 1.63746L7.95609 1.56892ZM5.01184 3.02213V2.82209L5.0079 2.82216L5.01184 3.02213ZM2.81159 2.43982L2.70027 2.60624L2.70826 2.61106L2.81159 2.43982ZM2.14859 2.23951L2.14693 2.4395L2.14781 2.4395L2.14859 2.23951ZM1.00984 3.26856L1.20979 3.27328L1.20979 3.27299L1.00984 3.26856ZM10.9016 19.0847L10.8669 19.2819L10.8779 19.2833L10.9016 19.0847ZM10.9913 19.0891L10.9973 18.8888L10.9852 18.8892L10.9913 19.0891ZM11.0861 19.0847L11.1083 19.2837L11.118 19.2821L11.0861 19.0847ZM15.6718 17.314L15.7067 17.1171L15.6285 17.1032L15.5621 17.1468L15.6718 17.314ZM16.4806 17.3841V17.5841L16.481 17.5841L16.4806 17.3841ZM20.9718 13.1915L20.7718 13.1911V13.1914L20.9718 13.1915ZM20.1486 10.7787L19.9566 10.7226L19.9283 10.8195L19.9895 10.8998L20.1486 10.7787ZM15.9165 14.8067C15.8326 14.8061 15.754 14.7746 15.6981 14.7231L15.427 15.0172C15.5587 15.1386 15.7341 15.2054 15.9137 15.2067L15.9165 14.8067ZM15.6991 14.724L14.2674 13.3866L13.9943 13.6789L15.4261 15.0163L15.6991 14.724ZM14.2735 13.3926C14.1724 13.2896 14.1751 13.1358 14.2823 13.0354L14.0089 12.7434C13.7391 12.9962 13.7283 13.4083 13.9882 13.6729L14.2735 13.3926ZM14.2823 13.0354C14.3959 12.9289 14.5862 12.9242 14.7066 13.0265L14.9655 12.7216C14.6915 12.4889 14.2722 12.4968 14.0089 12.7434L14.2823 13.0354ZM14.6996 13.0202L15.7786 14.0283L16.0516 13.736L14.9726 12.7279L14.6996 13.0202ZM16.0516 14.0283L18.2596 11.9674L17.9866 11.675L15.7786 13.7359L16.0516 14.0283ZM18.2664 11.9607C18.3392 11.8859 18.4548 11.8514 18.568 11.8783L18.6607 11.4893C18.4164 11.431 18.155 11.5017 17.9798 11.6817L18.2664 11.9607ZM18.5687 11.8785C18.6809 11.9048 18.7592 11.9841 18.7836 12.074L19.1696 11.9691C19.104 11.7278 18.9053 11.5466 18.66 11.4891L18.5687 11.8785ZM18.7835 12.0738C18.8075 12.1622 18.7787 12.2594 18.6996 12.3257L18.9566 12.6323C19.151 12.4694 19.2357 12.2134 19.1696 11.9693L18.7835 12.0738ZM18.6916 12.3329L16.1321 14.724L16.4051 15.0163L18.9646 12.6251L18.6916 12.3329ZM16.1323 14.7238C16.0768 14.7755 15.9991 14.8067 15.9151 14.8067V15.2067C16.0966 15.2067 16.2728 15.1396 16.4049 15.0165L16.1323 14.7238ZM12.3801 14.877C11.96 15.0653 11.5199 15.211 11.066 15.3117L11.1527 15.7022C11.6328 15.5957 12.0987 15.4414 12.5436 15.2421L12.3801 14.877ZM11.064 15.3122C11.0146 15.3237 10.9639 15.3236 10.9163 15.3123L10.8244 15.7016C10.9328 15.7272 11.0461 15.7271 11.1547 15.7018L11.064 15.3122ZM10.9146 15.3119C9.49423 14.9898 8.34551 14.3307 7.44596 13.3224C6.54443 12.3119 5.88409 10.9403 5.46028 9.18035L5.0714 9.274C5.50584 11.078 6.19013 12.5156 7.14748 13.5887C8.1068 14.664 9.3312 15.3629 10.8261 15.702L10.9146 15.3119ZM5.46037 9.18071C5.42974 9.05249 5.5144 8.90462 5.68433 8.86994L5.60436 8.47802C5.23778 8.55282 4.98244 8.90154 5.07131 9.27363L5.46037 9.18071ZM5.68475 8.86986C5.85944 8.83382 6.01236 8.93966 6.04329 9.07264L6.43289 8.98201C6.34733 8.61421 5.96675 8.40327 5.60394 8.4781L5.68475 8.86986ZM6.04365 9.07416C6.59856 11.3777 7.55032 12.7444 8.50995 13.5657C9.4684 14.3861 10.4186 14.6483 10.9428 14.7701L11.0334 14.3805C10.5363 14.265 9.65803 14.0219 8.77005 13.2619C7.88324 12.5029 6.97062 11.2142 6.43253 8.98049L6.04365 9.07416ZM11.0314 14.7706C11.4344 14.6813 11.8251 14.5524 12.1991 14.3849L12.0356 14.0199C11.6866 14.1761 11.3218 14.2965 10.9448 14.38L11.0314 14.7706ZM11.9239 14.2531C12.0062 14.5671 12.1288 14.8702 12.2868 15.1562L12.6369 14.9629C12.4944 14.7048 12.3845 14.4325 12.3108 14.1517L11.9239 14.2531ZM19.4553 9.80043C18.6941 9.21316 17.7538 8.86605 16.7705 8.80857L16.7472 9.20788C17.6524 9.2608 18.5151 9.58032 19.2109 10.1171L19.4553 9.80043ZM16.9538 9.05292C17.1061 8.38865 17.2177 7.71668 17.2868 7.03961L16.8889 6.999C16.8215 7.65937 16.7126 8.31505 16.5639 8.96353L16.9538 9.05292ZM17.2861 7.04532C17.3112 6.8543 17.2447 6.66621 17.1105 6.5297L16.8252 6.81014C16.8765 6.8623 16.898 6.92902 16.8895 6.99328L17.2861 7.04532ZM17.117 6.53669C16.9911 6.3957 16.8104 6.31447 16.6215 6.30681L16.6052 6.70648C16.6917 6.70999 16.7686 6.74709 16.8187 6.80315L17.117 6.53669ZM16.6211 6.30679C14.5158 6.22489 12.6653 5.40825 11.5307 4.08475L11.227 4.34509C12.4478 5.76913 14.4119 6.62115 16.6056 6.70649L16.6211 6.30679ZM11.5263 4.07983C11.3893 3.93023 11.1932 3.84745 10.9893 3.84745V4.24745C11.086 4.24745 11.1734 4.28671 11.2314 4.35001L11.5263 4.07983ZM10.9893 3.84745C10.7865 3.84745 10.5893 3.93004 10.4526 4.0804L10.7486 4.34944C10.8054 4.2869 10.8931 4.24745 10.9893 4.24745V3.84745ZM10.4487 4.08476C9.31434 5.40825 7.46469 6.22489 5.35757 6.30679L5.37311 6.70649C7.56849 6.62116 9.53184 5.76914 10.7524 4.34508L10.4487 4.08476ZM5.3581 6.30677C4.98474 6.32031 4.66862 6.61781 4.68605 7L5.08563 6.98177C5.07957 6.84874 5.19344 6.713 5.37259 6.70651L5.3581 6.30677ZM4.68602 6.99923C4.7019 7.37965 5.03997 7.65171 5.41259 7.6382L5.3981 7.23846C5.21821 7.24498 5.09128 7.11688 5.08567 6.98254L4.68602 6.99923ZM5.41287 7.63819C7.67556 7.55299 9.72642 6.7313 11.1294 5.35482L10.8493 5.0693C9.52777 6.36583 7.57663 7.15643 5.39782 7.23847L5.41287 7.63819ZM10.8521 5.35751C12.2335 6.66128 14.07 7.45635 16.0244 7.60052L16.0538 7.2016C14.1877 7.06394 12.4387 6.30495 11.1266 5.06661L10.8521 5.35751ZM15.8408 7.37529C15.7694 7.92409 15.6683 8.46906 15.5363 9.00769L15.9248 9.10286C16.0604 8.54955 16.1642 7.99001 16.2374 7.42684L15.8408 7.37529ZM15.699 8.85778C13.45 9.21731 11.7884 11.0397 11.7873 13.1914L12.1873 13.1916C12.1883 11.2564 13.6867 9.58455 15.7622 9.25277L15.699 8.85778ZM11.7873 13.1915C11.7873 13.5487 11.8325 13.9051 11.9239 14.2532L12.3108 14.1516C12.2282 13.8372 12.1873 13.5149 12.1873 13.1915H11.7873ZM11.924 14.2537C12.0072 14.5669 12.1286 14.8698 12.2868 15.1562L12.6369 14.9629C12.4946 14.7052 12.3855 14.4327 12.3106 14.151L11.924 14.2537ZM12.2853 15.1536C12.7373 16.0021 13.4705 16.6888 14.373 17.113L14.5432 16.751C13.7152 16.3618 13.0479 15.7344 12.6384 14.9655L12.2853 15.1536ZM14.3606 16.7574C13.3115 17.3429 12.158 17.7486 10.9554 17.9559L11.0233 18.3501C12.2697 18.1353 13.4662 17.7146 14.5556 17.1066L14.3606 16.7574ZM11.0253 17.9562C7.9953 17.402 5.75003 15.9012 4.28124 13.4719C2.80759 11.0345 2.10476 7.64413 2.20679 3.29724L1.8069 3.28785C1.70392 7.67532 2.41084 11.1514 3.93894 13.6789C5.47191 16.2143 7.82039 17.7766 10.9534 18.3497L11.0253 17.9562ZM2.20646 3.30491C2.20436 3.33888 2.1832 3.35978 2.16439 3.36743L2.0138 2.99686C1.90098 3.0427 1.81533 3.14932 1.80722 3.28019L2.20646 3.30491ZM2.16786 3.36598C2.15687 3.37069 2.14666 3.3715 2.13839 3.37048C2.13019 3.36947 2.12079 3.36629 2.11147 3.35929L2.35171 3.03947C2.25522 2.96699 2.12373 2.94972 2.01032 2.99831L2.16786 3.36598ZM2.12619 3.36935C2.98184 3.89993 3.98966 4.17361 5.01471 4.15378L5.00697 3.75385C4.05752 3.77222 3.12584 3.51856 2.33699 3.0294L2.12619 3.36935ZM5.01084 4.15381C6.91786 4.15381 8.5381 3.32253 9.07938 1.96416L8.7078 1.81609C8.25058 2.96349 6.82832 3.75381 5.01084 3.75381V4.15381ZM9.08313 1.95397C9.15137 1.75139 9.35386 1.59788 9.60176 1.58681L9.58392 1.18721C9.18482 1.20503 8.82931 1.45447 8.70406 1.82627L9.08313 1.95397ZM9.59284 1.58701H12.3926V1.18701H9.59284V1.58701ZM12.3825 1.58675C12.6286 1.59925 12.829 1.75191 12.8964 1.95357L13.2758 1.82668C13.1517 1.45582 12.799 1.20738 12.4027 1.18727L12.3825 1.58675ZM12.9017 1.96764C13.1918 2.65744 13.7346 3.22358 14.4294 3.56963L14.6078 3.21158C13.9941 2.90592 13.5214 2.40946 13.2705 1.8126L12.9017 1.96764ZM14.4278 3.5688C15.2074 3.96612 16.0844 4.16684 16.9708 4.15379L16.9649 3.75384C16.1423 3.76594 15.3298 3.57955 14.6094 3.21241L14.4278 3.5688ZM16.964 4.15378C17.99 4.17361 18.9978 3.89994 19.8535 3.36935L19.6427 3.0294C18.8539 3.51855 17.9222 3.77222 16.9717 3.75385L16.964 4.15378ZM19.8704 3.35761C19.8569 3.36805 19.8435 3.37119 19.8331 3.37119V2.97119C19.7601 2.97119 19.6863 2.99437 19.6258 3.04115L19.8704 3.35761ZM19.8381 3.37113C19.8151 3.37171 19.7755 3.35261 19.7729 3.30334L20.1723 3.28176C20.1621 3.09367 19.9995 2.96695 19.8281 2.97126L19.8381 3.37113ZM19.7728 3.30049C19.861 5.52032 19.648 7.74228 19.1384 9.91307L19.5278 10.0045C20.0457 7.79867 20.2622 5.54061 20.1724 3.2846L19.7728 3.30049ZM16.775 16.2357C16.6765 16.2475 16.5788 16.2533 16.4803 16.2524L16.4769 16.6524C16.5934 16.6534 16.7082 16.6466 16.8227 16.6328L16.775 16.2357ZM16.4775 16.2524C16.1401 16.2542 15.8046 16.2051 15.4842 16.1074L15.3675 16.49C15.7266 16.5995 16.1021 16.6544 16.4796 16.6524L16.4775 16.2524ZM15.4819 16.1067C14.6074 15.8512 13.8928 15.2659 13.5089 14.4995L13.1513 14.6786C13.5878 15.5501 14.3948 16.2058 15.3698 16.4907L15.4819 16.1067ZM13.5064 14.4947C13.3641 14.2285 13.27 13.9423 13.2284 13.6484L12.8323 13.7045C12.8807 14.0456 12.9896 14.3766 13.1537 14.6834L13.5064 14.4947ZM13.2269 13.6393C13.1988 13.4911 13.1844 13.3418 13.1853 13.1927L12.7853 13.1903C12.7843 13.3668 12.8013 13.5418 12.8338 13.7136L13.2269 13.6393ZM13.1853 13.1916C13.1863 11.8644 14.1113 10.6774 15.491 10.2718L15.3782 9.88802C13.8439 10.3391 12.7864 11.671 12.7853 13.1914L13.1853 13.1916ZM15.4346 10.2799H15.4406V9.8799H15.4346V10.2799ZM15.4974 10.2717C15.8134 10.178 16.145 10.1306 16.4776 10.1306V9.7306C16.1072 9.7306 15.7373 9.78335 15.3838 9.88815L15.4974 10.2717ZM16.4776 10.1306H16.5236V9.7306H16.4776V10.1306ZM16.5211 10.1306C17.4275 10.1418 18.2857 10.5013 18.8958 11.1193L19.1804 10.8382C18.4935 10.1425 17.5337 9.74312 16.5261 9.73061L16.5211 10.1306ZM18.8973 11.1208C19.1811 11.4023 19.4012 11.7326 19.5461 12.0925L19.9171 11.9431C19.7515 11.5316 19.5005 11.1557 19.1789 10.8367L18.8973 11.1208ZM19.5475 12.0961C19.6961 12.4454 19.7718 12.8164 19.7718 13.1915H20.1718C20.1718 12.7621 20.0851 12.3379 19.9156 11.9395L19.5475 12.0961ZM19.7718 13.1915C19.7718 14.7587 18.488 16.0882 16.7817 16.235L16.816 16.6335C18.7057 16.471 20.1718 14.9891 20.1718 13.1915H19.7718ZM21.1708 3.26412C21.1553 2.56673 20.5446 2.03359 19.8304 2.03951L19.8337 2.4395C20.3561 2.43517 20.7609 2.82021 20.7709 3.27299L21.1708 3.26412ZM19.8313 2.03951C19.5557 2.04059 19.2846 2.12191 19.0579 2.27358L19.2803 2.60606C19.4401 2.49918 19.634 2.44029 19.8329 2.4395L19.8313 2.03951ZM19.0656 2.2687C18.4442 2.64462 17.7152 2.8377 16.973 2.82217L16.9647 3.22208C17.781 3.23916 18.585 3.02695 19.2726 2.61094L19.0656 2.2687ZM16.9697 2.82213C16.443 2.81988 15.84 2.72737 15.3231 2.51091C14.8056 2.29422 14.3957 1.96315 14.2106 1.49534L13.8386 1.64251C14.0773 2.24567 14.5931 2.63887 15.1686 2.87987C15.7447 3.12111 16.4019 3.21971 16.968 3.22212L16.9697 2.82213ZM14.2126 1.50072C13.9445 0.761726 13.2143 0.269731 12.3961 0.255353L12.3891 0.655291C13.0554 0.667001 13.6296 1.06663 13.8366 1.63712L14.2126 1.50072ZM12.3926 0.255322H9.59284V0.655322H12.3926V0.255322ZM9.58933 0.255353C8.77085 0.269722 8.03821 0.76015 7.7682 1.50039L8.14398 1.63746C8.35247 1.06588 8.92884 0.66701 9.59635 0.655291L9.58933 0.255353ZM7.77018 1.49519C7.58452 1.96332 7.17426 2.29555 6.65703 2.51274C6.14037 2.72969 5.5379 2.82212 5.01184 2.82212V3.22213C5.57853 3.22213 6.23582 3.12345 6.8119 2.88154C7.38742 2.63988 7.90291 2.2455 8.142 1.64266L7.77018 1.49519ZM5.0079 2.82216C4.26559 2.83681 3.53616 2.64346 2.91492 2.26858L2.70826 2.61106C3.39553 3.02578 4.19959 3.23819 5.01579 3.22209L5.0079 2.82216ZM2.92279 2.27358C2.69606 2.12191 2.42498 2.04059 2.14938 2.03951L2.14781 2.4395C2.34671 2.44029 2.54063 2.49918 2.70039 2.60606L2.92279 2.27358ZM2.15025 2.03951C1.43606 2.03359 0.825352 2.56673 0.809891 3.26412L1.20979 3.27299C1.21983 2.82021 1.62462 2.43517 2.14693 2.4395L2.15025 2.03951ZM0.809897 3.26383C0.699522 7.9367 1.47922 11.6365 3.16041 14.3241C4.84633 17.0194 7.42632 18.6765 10.8669 19.2817L10.9362 18.8877C7.59461 18.3 5.11885 16.7008 3.49953 14.112C1.87546 11.5157 1.10041 7.90379 1.20979 3.27328L0.809897 3.26383ZM10.8779 19.2833C10.9147 19.2877 10.9552 19.2903 10.9975 19.289L10.9852 18.8892C10.967 18.8898 10.947 18.8887 10.9253 18.8861L10.8779 19.2833ZM10.9854 19.289C11.0282 19.2903 11.0702 19.2877 11.1083 19.2834L11.0639 18.8859C11.0395 18.8886 11.017 18.8898 10.9973 18.8892L10.9854 19.289ZM11.118 19.2821C12.7955 19.011 14.3886 18.396 15.7816 17.4812L15.5621 17.1468C14.2171 18.0301 12.6772 18.6249 11.0542 18.8872L11.118 19.2821ZM15.6369 17.5109C15.9157 17.5603 16.1979 17.5841 16.4806 17.5841V17.1841C16.2203 17.1841 15.9615 17.1622 15.7067 17.1171L15.6369 17.5109ZM16.481 17.5841C19.0593 17.5785 21.1708 15.6269 21.1718 13.1916L20.7718 13.1914C20.7709 15.3801 18.8649 17.179 16.4802 17.1841L16.481 17.5841ZM21.1718 13.1919C21.1737 12.2824 20.8706 11.3965 20.3077 10.6575L19.9895 10.8998C20.5006 11.571 20.7735 12.3719 20.7718 13.1911L21.1718 13.1919ZM20.3406 10.8347C20.9658 8.69425 21.2404 6.16999 21.1708 3.26377L20.7709 3.27334C20.8398 6.15058 20.5674 8.63181 19.9566 10.7226L20.3406 10.8347Z" fill="white"/>
</svg>
