<svg width="22" height="14" viewBox="0 0 22 14" fill="none" xmlns="http://www.w3.org/2000/svg">
<path fill-rule="evenodd" clip-rule="evenodd" d="M1.28594 7.16435C1.96336 8.25959 5.08084 12.551 10.8159 12.551C16.5509 12.551 19.6688 8.25959 20.3463 7.16435C19.6688 6.06952 16.5509 1.77817 10.8159 1.77817C5.08084 1.77817 1.96336 6.06952 1.28594 7.16435ZM10.8159 13.6433C3.5002 13.6433 0.202973 7.62845 0.067037 7.37473C-0.022834 7.20769 -0.022834 7.0377 0.067037 6.87066C0.202973 6.61694 3.5002 0.599609 10.8159 0.599609C18.1316 0.599609 21.4288 6.61694 21.5652 6.87066C21.6546 7.0377 21.6546 7.20769 21.5652 7.37473C21.4288 7.66884 18.1316 13.6433 10.8159 13.6433Z" fill="white"/>
<path fill-rule="evenodd" clip-rule="evenodd" d="M10.816 2.95688C8.33211 2.95688 6.29985 4.85032 6.29985 7.16451C6.29985 9.47871 8.33211 11.3721 10.816 11.3721C13.2999 11.3721 15.3321 9.47871 15.3321 7.16451C15.3321 4.85032 13.2999 2.95688 10.816 2.95688ZM10.816 12.467C7.65469 12.467 5.12476 10.0669 5.12476 7.16451C5.12476 4.26209 7.70076 1.86206 10.816 1.86206C13.9312 1.86206 16.5077 4.26209 16.5077 7.16451C16.5077 10.0669 13.9773 12.467 10.816 12.467Z" fill="white"/>
<path fill-rule="evenodd" clip-rule="evenodd" d="M10.816 10.1098C9.09937 10.1098 7.65466 8.80458 7.65466 7.16445C7.65466 6.87076 7.92653 6.61704 8.24221 6.61704C8.55789 6.61704 8.82976 6.87076 8.82976 7.16445C8.82976 8.17344 9.68692 8.97457 10.7699 8.97457C11.8556 8.97457 12.7123 8.17344 12.7123 7.16445C12.7123 6.15588 11.8556 5.35475 10.7699 5.35475C10.4542 5.35475 10.1846 5.10398 10.1846 4.80734C10.1846 4.51323 10.4542 4.26245 10.7699 4.26245C12.4865 4.26245 13.9312 5.56513 13.9312 7.20779C13.9312 8.8475 12.533 10.1098 10.816 10.1098" fill="white"/>
</svg>
