<svg width="16" height="18" viewBox="0 0 16 18" fill="none" xmlns="http://www.w3.org/2000/svg">
<path fill-rule="evenodd" clip-rule="evenodd" d="M9.16551 8.31309C9.16022 8.64446 8.97407 8.95373 8.65986 9.13627V10.721C8.65986 11.0431 8.36545 11.3023 7.99975 11.3023C7.63405 11.3023 7.33965 11.0431 7.33965 10.721V9.13627C7.02543 8.95373 6.83928 8.64446 6.834 8.31309C6.834 7.74571 7.35549 7.28645 7.99975 7.28645C8.64402 7.28645 9.16551 7.74571 9.16551 8.31309ZM14.4728 10.5071C14.0648 12.9731 10.9135 15.1484 9.07705 16.2297C8.42222 16.6157 7.57729 16.6157 6.92246 16.2297C5.08604 15.1484 1.93468 12.9731 1.53333 10.5757L1.32078 4.84949C1.31154 4.58905 1.49637 4.35768 1.78021 4.27629C3.81731 3.75309 5.78179 3.04502 7.64858 2.15906C7.86509 2.03698 8.13442 2.03698 8.35093 2.15906C10.2177 3.04502 12.1875 3.75309 14.2246 4.27629C14.5031 4.35768 14.6893 4.58905 14.6787 4.84949L14.4728 10.5071ZM14.6167 3.1671C12.6826 2.67297 10.8158 2.00094 9.03613 1.16963C8.40242 0.824316 7.59709 0.824316 6.96339 1.16963C5.18373 2.00094 3.31695 2.67297 1.38283 3.1671C0.53789 3.40429 -0.024522 4.1077 0.000562107 4.88902L0.217078 10.6756C0.708198 13.587 4.16849 16.0123 6.19502 17.1971C7.28816 17.8424 8.71135 17.8424 9.80449 17.1971C11.8323 16.0123 15.2926 13.587 15.7877 10.6117L15.9989 4.88902C16.024 4.1077 15.4629 3.40429 14.6167 3.1671Z" fill="white"/>
</svg>
