<svg width="20" height="18" viewBox="0 0 20 18" fill="none" xmlns="http://www.w3.org/2000/svg">
<path fill-rule="evenodd" clip-rule="evenodd" d="M13.391 13.1393L14.8499 9.51021L16.3088 13.1393H13.391ZM15.7499 7.26968H13.9499L9.89988 17.3319H11.6999L12.7088 14.8164H16.9838L17.9999 17.3319H19.7999L15.7499 7.26968ZM10.6838 11.521L8.39508 9.41546L8.42298 9.39198C9.99168 7.76441 11.1059 5.89367 11.7629 3.9156H14.3999V2.23856H8.09988V0.561523H6.29988V2.23856H-0.00012207V3.90554H10.0547C9.44988 5.52724 8.49678 7.06005 7.19988 8.40336C6.36288 7.53801 5.67078 6.59132 5.12178 5.59264H3.32178C3.97968 6.95859 4.87968 8.25243 6.00468 9.41546L1.42008 13.624L2.69988 14.8164L7.19988 10.6238L9.99798 13.2307L10.6838 11.521Z" fill="#202244"/>
</svg>
