<svg width="64" height="58" viewBox="0 0 64 58" fill="none" xmlns="http://www.w3.org/2000/svg">
<path fill-rule="evenodd" clip-rule="evenodd" d="M42.3282 37.6709C36.6412 43.3589 27.3712 43.3589 21.6722 37.6709C15.9802 31.9679 15.9802 22.6989 21.6722 17.0109C24.5122 14.1599 28.2502 12.7299 32.0002 12.7299C35.8752 12.7259 39.5902 14.2609 42.3282 16.9999C48.0312 22.6989 48.0312 31.9679 42.3282 37.6709ZM46.4882 38.2699C49.1132 34.8039 50.4022 30.5069 50.1212 26.1709C50.0782 25.5389 50.0122 24.9209 49.8982 24.2999C49.3012 20.6989 47.6212 17.2609 44.8402 14.4919C44.6092 14.2609 44.3712 14.0309 44.1292 13.8199C43.6212 13.3709 43.1092 12.9609 42.5782 12.5699C36.2812 8.04993 27.7112 8.04993 21.4102 12.5699C20.8792 12.9489 20.3592 13.3779 19.8592 13.8199C19.6292 14.0389 19.3912 14.2499 19.1602 14.4799C16.4882 17.1399 14.7152 20.5699 14.0902 24.2889C13.9882 24.9099 13.9102 25.5389 13.8712 26.1599C13.5512 31.1989 15.3092 36.3389 19.1482 40.1709C22.6912 43.7309 27.3522 45.4999 32.0002 45.4999C35.8592 45.4999 39.7112 44.2699 42.9412 41.8319L55.0582 56.0589C55.7892 56.9139 56.8402 57.4209 57.9612 57.4639C59.0782 57.5069 60.1682 57.0819 60.9612 56.2889C62.6092 54.6409 62.5002 51.9209 60.7192 50.4019L46.4882 38.2699Z" fill="#292F64"/>
<mask id="mask0_0_1074" style="mask-type:luminance" maskUnits="userSpaceOnUse" x="0" y="0" width="64" height="37">
<path fill-rule="evenodd" clip-rule="evenodd" d="M0 0.00012207H63.9998V36.4919H0V0.00012207Z" fill="white"/>
</mask>
<g mask="url(#mask0_0_1074)">
<path fill-rule="evenodd" clip-rule="evenodd" d="M52.2188 10.4409C55.1018 10.4409 57.4418 8.1009 57.4418 5.2179C57.4418 2.3389 55.1018 -0.000101679 52.2188 -0.000101679C49.3398 -0.00810168 46.9998 2.3389 46.9998 5.2179C46.9998 8.1009 49.3398 10.4409 52.2188 10.4409ZM55.8908 11.1789L55.7108 11.1599L52.8088 15.3199C52.6798 15.5109 52.4608 15.6249 52.2308 15.6209C51.9998 15.6209 51.7818 15.4999 51.6408 15.3079L48.7308 11.1519L48.5508 11.1709C47.3398 11.3079 46.1798 11.6789 45.1018 12.2889L44.7308 12.4999L45.0508 12.7889C45.3088 13.0189 45.5588 13.2609 45.8088 13.5109C48.6988 16.4019 50.5778 20.0389 51.2388 24.0579L51.2818 24.3199H59.5708L59.8088 20.0889C59.8358 19.7029 60.1638 19.4099 60.5508 19.4209H60.5588C60.9488 19.4409 61.2498 19.7809 61.2308 20.1709L61.0118 24.3199H63.9998V20.2609C63.9998 15.6089 60.5118 11.6989 55.8908 11.1789ZM11.7698 10.4409C14.6478 10.4409 16.9878 8.1009 16.9878 5.2179C16.9878 2.3389 14.6478 -0.000101679 11.7698 -0.000101679C8.89076 -0.000101679 6.55176 2.3389 6.55176 5.2179C6.53876 8.1009 8.89076 10.4409 11.7698 10.4409ZM18.9488 12.7999L19.2618 12.5189L18.8978 12.3079C17.8398 11.7029 16.6638 11.3199 15.4488 11.1789L15.2698 11.1599L12.3788 15.3079C12.2498 15.4799 12.0308 15.5889 11.7888 15.5889C11.5388 15.5889 11.3278 15.4919 11.2108 15.3079L8.30176 11.1519L8.10176 11.1789C3.47976 11.6789 -0.000244141 15.5889 -0.000244141 20.2689V24.3319H2.96876L2.74976 20.1789C2.72976 19.7889 3.03076 19.4489 3.49976 19.4289C3.85176 19.4289 4.15976 19.7419 4.17976 20.1089L4.40976 24.3389H12.6988L12.7378 24.0819C13.4098 20.0699 15.2888 16.4289 18.1908 13.5309C18.4408 13.2689 18.6908 13.0389 18.9488 12.7999ZM31.9998 24.9919C34.4888 24.9919 36.5118 22.9609 36.5118 20.4799C36.5118 17.9999 34.4888 15.9679 31.9998 15.9679C29.5118 15.9679 27.4878 17.9999 27.4878 20.4799C27.4878 22.9609 29.5118 24.9919 31.9998 24.9919ZM35.1598 25.7419L34.9808 25.7179L32.5898 29.1279C32.4688 29.3089 32.2388 29.4099 31.9998 29.4099C31.7618 29.4099 31.5388 29.2999 31.4218 29.1279L29.0308 25.7179L28.8518 25.7419C25.1018 26.1909 22.2698 29.4099 22.2698 33.2099V36.4919H24.5198L24.3398 33.1409C24.3198 32.7499 24.6288 32.4019 25.1018 32.3709C25.4408 32.3709 25.7498 32.6789 25.7698 33.0589L25.9608 36.4919H38.0388L38.2308 33.0589C38.2578 32.6679 38.5898 32.3669 38.9808 32.3779H38.9888C39.3788 32.4019 39.6798 32.7419 39.6598 33.1409L39.4808 36.4919H41.7308V33.2099C41.7188 29.4209 38.8988 26.2109 35.1598 25.7419Z" fill="#292F64"/>
</g>
</svg>
